<?xml version="1.0" encoding="UTF-8" standalone="no"?>
<svg
   xmlns:dc="http://purl.org/dc/elements/1.1/"
   xmlns:cc="http://creativecommons.org/ns#"
   xmlns:rdf="http://www.w3.org/1999/02/22-rdf-syntax-ns#"
   xmlns:svg="http://www.w3.org/2000/svg"
   xmlns="http://www.w3.org/2000/svg"
   xmlns:sodipodi="http://sodipodi.sourceforge.net/DTD/sodipodi-0.dtd"
   xmlns:inkscape="http://www.inkscape.org/namespaces/inkscape"
   width="1122.5197"
   height="600"
   viewBox="0 0 297 158.75"
   version="1.1"
   id="svg240"
   sodipodi:docname="REV-41-1621.svg"
   style="fill:none;fill-rule:evenodd;stroke-linecap:round;stroke-linejoin:round"
   inkscape:version="0.92.5 (2060ec1f9f, 2020-04-08)">
  <metadata
     id="metadata244">
    <rdf:RDF>
      <cc:Work
         rdf:about="">
        <dc:format>image/svg+xml</dc:format>
        <dc:type
           rdf:resource="http://purl.org/dc/dcmitype/StillImage" />
        <dc:title></dc:title>
      </cc:Work>
    </rdf:RDF>
  </metadata>
  <sodipodi:namedview
     pagecolor="#ffffff"
     bordercolor="#666666"
     borderopacity="1"
     objecttolerance="10"
     gridtolerance="10"
     guidetolerance="10"
     inkscape:pageopacity="0"
     inkscape:pageshadow="2"
     inkscape:window-width="2400"
     inkscape:window-height="1271"
     id="namedview242"
     showgrid="false"
     units="px"
     inkscape:zoom="1.1893651"
     inkscape:cx="594.09327"
     inkscape:cy="421.35448"
     inkscape:window-x="2391"
     inkscape:window-y="-9"
     inkscape:window-maximized="1"
     inkscape:current-layer="g238" />
  <desc
     id="desc2">Composer Export</desc>
  <script
     type="text/ecmascript"
     id="script4"><![CDATA[
if(typeof(top) != "undefined")
{
	top.ShowPaper = ShowPaper;
}
function ShowHotSpot(evt,hotspotid)
{
	var svgDocument = evt.target.ownerDocument;
	var strId = "hotspot."+hotspotid;
	var hotspot = svgDocument.getElementById(strId);
	if(hotspot)
		hotspot.setAttribute("opacity",".5");
}
function HideHotSpot(evt,hotspotid)
{
	var svgDocument = evt.target.ownerDocument;
	var strId = "hotspot."+hotspotid;
	var hotspot = svgDocument.getElementById(strId);
	if(hotspot)
		hotspot.setAttribute("opacity","0");

	var toolTip = svgDocument.getElementById('ToolTip');
	if(toolTip)
		toolTip.setAttribute("visibility","hidden");
}
function ShowToolTip(evt,hotspotid,strTooltip)
{
	if(strTooltip=="")
	return;

	// change text
	var svgDocument = evt.target.ownerDocument;
	var tiptext = svgDocument.getElementById('ToolTipText');
	if( !tiptext )
	return;
	tiptext.firstChild.nodeValue = " " + strTooltip + "  " ;

	// show tooltip before, else some refresh issue

	var toolTip = svgDocument.getElementById('ToolTip');
	if(!toolTip)
	return;

	toolTip.setAttribute("visibility","visible");
	toolTip.setAttribute("opacity",".95");

	// move tooltip
	// get viewbox

	var root = svgDocument.documentElement;
	var vbox = (root.getAttribute("viewBox")).split(' ');
	var x0 = parseFloat(vbox[0]);
	var y0 = parseFloat(vbox[1]);
	var vboxW = parseFloat(vbox[2]);
	var vboxH = parseFloat(vbox[3]);

	// get default width of svg

	var strW = root.getAttribute("width");
	var svgW = parseFloat(strW);
	if(strW.indexOf('mm') != -1)
	svgW *= 3.779;

	var strH = root.getAttribute("height");
	var svgH = parseFloat(strH);
	if(strH.indexOf('mm') != -1)
	svgH *= 3.779;  	// 96 dpi  -> 96/25.4 = 3.779

	// update the viewbox / width / height if svg is embedded in html with zoom fit all
	var realx0 = x0;
	var realy0 = y0;
	var realvboxW = vboxW;
	var realvboxH = vboxH;
	var realsvgW = svgW;
	var realsvgH = svgH;

	if ((typeof(top) == "undefined") || (typeof(top.svgctl1) != "undefined")) // embedded in html
	{
		// get window size in pxl

		svgW = window.innerWidth;
		svgH = window.innerHeight;

		// calculate real viewbox

		realsvgW = svgW;
		realsvgH = svgH;
		if((svgW / svgH) > (vboxW / vboxH))
		{
			realvboxW = (vboxH * svgW) / svgH;
			realvboxH = vboxH;
			realx0 = x0 - (realvboxW - vboxW)/2 ;
		}
		else
		{
			realvboxH = (vboxW * svgH) / svgW;
			realvboxW = vboxW;
			realy0 = y0 - (realvboxH - vboxH)/2 ;
		}
	}

	// get user zoom/pan

	var newScale = root.currentScale;
	var translation = root.currentTranslate;

	// transform pxl to user unit

	var xPos = (((evt.clientX+10- translation.x)/newScale) * realvboxW)/realsvgW  + realx0 ;
	var yPos = (((evt.clientY+5- translation.y)/newScale) * realvboxH)/ realsvgH  + realy0 ;
	var scaleForWidth = ( (1 / newScale) * realvboxH) / realsvgH;

	// move tooltip

	toolTip.setAttribute("transform", "translate(" + xPos + "," + yPos + ")" );

	// resize tooltip

	var fontsize = 12;
	tiptext.setAttribute("font-size",fontsize*scaleForWidth);
	tiptext.setAttribute("y", fontsize*scaleForWidth);
	var tipBG = svgDocument.getElementById('ToolTipBG');
	var outline = tiptext.getBBox();
	if(tipBG)
	{
		tipBG.setAttribute("stroke-width", 1*scaleForWidth);
		tipBG.setAttribute("width", Number(outline.width) );
		tipBG.setAttribute("height", Number(outline.height) + fontsize*.5*scaleForWidth );
	}
	var ToolTipShadow = svgDocument.getElementById('ToolTipShadow');
	if(ToolTipShadow)
	{
		ToolTipShadow.setAttribute("width", Number(outline.width) );
		ToolTipShadow.setAttribute("height", Number(outline.height) + fontsize*.5*scaleForWidth );
		ToolTipShadow.setAttribute("x", 3*scaleForWidth);
		ToolTipShadow.setAttribute("y", 3*scaleForWidth);
	}
}
function ShowPaper()
{
  var svgDocument = getDocument();
  var paper = svgDocument.getElementById("paperID");
  if(paper)
  {
    paper.setAttribute("transform","scale(1)");
    paper.setAttribute("opacity","1");
    paper.setAttribute("visibility","visible");
  }
  var svg = svgDocument.getRootElement();
  if(svg)
  {
    svg.setAttribute("width","307.000mm");
    svg.setAttribute("height","220.000mm");
    svg.setAttribute("viewBox","-5.000000 -5.000000 307.000000 220.000000");
  }
}
]]></script>
  <defs
     id="defs6" />
  <g
     id="g238"
     transform="translate(0,-51.250005)">
    <g
       id="g773"
       transform="matrix(0.90873281,0,0,0.90873281,8.3552239,38.206879)">
      <path
         id="path10"
         d="m 112.29,30.35 0.83,0.97 0.48,0.99 0.11,12.01 2.7,1.56 3.91,6.74 0.16,3.93 0.15,1.48 0.33,1.32 1,2.43 1.31,1.97 0.82,0.98 1.47,1.31 1.95,1 0.67,0.06 0.16,-1 0.11,-4.14 7.92,-4.59 16.88,9.8 3.92,6.73 0.15,4.11 0.16,1.48 0.32,1.15 1.01,2.43 0.64,1 1.32,1.79 1.64,1.47 1.94,1 0.67,0.06 0.33,-5.25 7.88,-4.48 9.33,5.39 1.12,0.35 h 0.94 l 1.22,-0.42 4.35,-2.53 2.13,-0.82 1.8,-0.33 h 3 l 1.15,0.16 1.14,0.33 1.15,0.49 14.43,8.33 3.92,6.73 -0.01,80.8 -7.58,4.39 -0.45,-0.01 -13.92,-8.03 -0.48,-0.17 -1.87,-0.01 -6,3.34 -2.34,0.6 h -4.21 l -1.97,-0.49 -2.95,-1.47 -7.85,-4.6 -1.47,-2.45 -2.47,-4.25 -0.16,-4.26 -0.16,-1.32 -0.82,-2.45 -0.82,-1.63 -1.13,-1.66 -1.16,-1.29 -1.47,-1.15 -1.15,-0.66 -0.67,-0.17 -0.31,0.04 -0.17,1.17 -0.14,3.95 -7.56,4.41 -0.49,0.12 -16.69,-9.69 -3.95,-6.7 -0.15,-4.43 -0.33,-1.8 -0.49,-1.47 -0.8,-1.66 -1.32,-1.96 -1.16,-1.29 -1.47,-1.15 -1.32,-0.65 -0.71,-0.2 -0.17,0.17 -0.26,5.15 -7.58,4.39 h -0.44 l -9.65,-5.6 -1.31,-1.15 -0.52,-1.12 -0.13,-11.98 -7.22,-4.25 -3.93,-6.71 -0.01,-80.68 7.81,-4.49 h 0.38 z"
         style="fill:#e8e8e8"
         inkscape:connector-curvature="0" />
      <path
         id="path12"
         d="m 97.89,31.3 0.97,1.51 0.51,1.36 -0.5,-0.39 -0.83,-1.3 -0.34,-0.64 0.02,-0.69 z"
         style="fill:#ffffff"
         inkscape:connector-curvature="0" />
      <path
         id="path14"
         d="m 98.06,49.99 0.8,1.16 0.66,1.63 0.01,2.52 -0.33,-0.23 -0.84,-1.13 -0.65,-1.31 -0.33,-1.32 0.01,-2.15 z"
         style="fill:#ffffff"
         inkscape:connector-curvature="0" />
      <path
         id="path16"
         d="m 97.89,68.14 0.97,1.51 0.51,1.36 L 99.03,70.8 97.87,69 97.64,68.02 Z"
         style="fill:#ffffff"
         inkscape:connector-curvature="0" />
      <path
         id="path18"
         d="m 141.78,69.45 1.15,1.33 0.96,1.99 0.19,0.86 -0.66,-0.55 -0.84,-1.13 -0.66,-1.31 -0.39,-1.31 z"
         style="fill:#ffffff"
         inkscape:connector-curvature="0" />
      <path
         id="path20"
         d="m 114.92,72.76 0.81,1.15 0.67,1.65 -0.01,0.38 -0.32,-0.05 -0.66,-0.84 -1,-1.62 -0.33,-0.98 0.01,-0.68 z"
         style="fill:#ffffff"
         inkscape:connector-curvature="0" />
      <path
         id="path22"
         d="m 135.22,79.31 2.12,0.83 1.81,0.81 2.94,1.64 3.6,2.62 2.95,2.62 2.15,2.28 2.62,3.11 3.11,4.42 1.46,2.48 1.64,3.11 2.12,4.91 1.15,3.44 0.82,3.11 0.65,3.6 0.33,3.61 v 2.67 l -0.16,2.13 -0.49,2.79 -0.66,2.12 -1.14,2.46 -1.64,2.29 -0.87,0.77 -1.14,0.5 -2.47,0.32 h -0.59 l -2.47,-0.16 -2.78,-0.66 -2.95,-1.15 -3.42,-1.82 -2.46,-1.63 -2.78,-2.3 -2.62,-2.45 -1.81,-1.96 -3.1,-3.94 -2.47,-3.75 -2.46,-4.42 -1.64,-3.6 -1.81,-5.07 -1.14,-4.59 -0.49,-3.45 -0.22,-4.42 0.33,-3.6 0.54,-2.41 0.83,-2.45 1.24,-2.36 1.47,-1.8 0.88,-0.76 1.1,-0.38 1.31,-0.16 h 3.33 z"
         style="fill:#ffffff"
         inkscape:connector-curvature="0" />
      <path
         id="path24"
         d="m 98.69,85.21 0.83,1.96 v 2.52 l -1.13,-1.38 -0.85,-1.78 -0.16,-0.83 0.01,-2.14 z"
         style="fill:#ffffff"
         inkscape:connector-curvature="0" />
      <path
         id="path26"
         d="m 210.05,96.51 0.84,1.65 v 0.37 l -0.49,-0.4 -1.18,-2.1 0.02,-0.51 z"
         style="fill:#ffffff"
         inkscape:connector-curvature="0" />
      <path
         id="path28"
         d="m 169.95,104.36 1.13,1.65 0.5,1.31 0.01,0.54 -0.66,-0.55 -1.16,-1.79 -0.51,-1.3 0.02,-0.52 z"
         style="fill:#ffffff"
         inkscape:connector-curvature="0" />
      <path
         id="path30"
         d="m 97.89,104.99 0.99,1.49 0.49,1.38 -0.34,-0.22 -0.83,-1.3 -0.5,-0.98 0.01,-0.51 z"
         style="fill:#ffffff"
         inkscape:connector-curvature="0" />
      <path
         id="path32"
         d="m 114.26,108.76 1.16,1.49 0.79,1.66 0.19,0.86 -0.66,-0.55 -0.83,-1.13 -0.66,-1.31 -0.17,-0.48 0.01,-0.69 z"
         style="fill:#ffffff"
         inkscape:connector-curvature="0" />
      <path
         id="path34"
         d="m 209.75,114.51 0.96,1.66 0.49,1.8 0.01,1.85 -0.32,-0.22 -1.32,-1.96 -0.51,-1.3 -0.15,-1.16 -0.05,-1.49 0.21,-0.02 z"
         style="fill:#ffffff"
         inkscape:connector-curvature="0" />
      <path
         id="path36"
         d="m 198.75,122.88 1.16,1.31 0.81,1.64 0.33,1.63 0.01,5.79 -2.96,-1.04 -1.15,-0.16 h -2.67 l -1.31,0.16 -1.14,0.33 -1.15,0.49 -4.91,2.79 -0.98,0.33 h -1.27 l -0.98,-0.33 -2.44,-1.65 -1.49,-1.62 -1.31,-1.98 -0.82,-1.79 -0.49,-1.47 -0.16,-0.83 -0.02,-2.91 0.14,-0.37 0.36,-0.02 2.95,1.5 1.96,0.67 1,0.15 h 3.87 l 1.35,-0.29 1.11,-0.37 1.22,-0.58 4.83,-2.7 h 2.03 z"
         style="fill:#ffffff"
         inkscape:connector-curvature="0" />
      <path
         id="path38"
         d="m 209.41,132.5 0.83,1.17 0.65,1.34 v 0.36 l -0.33,-0.21 -0.83,-1.31 -0.51,-0.98 0.02,-0.51 z"
         style="fill:#ffffff"
         inkscape:connector-curvature="0" />
      <path
         id="path40"
         d="m 170.11,141.37 0.8,1.16 0.67,1.64 0.01,0.54 -0.5,-0.39 -0.83,-1.13 -0.5,-0.81 -0.5,-1.32 0.02,-0.51 z"
         style="fill:#ffffff"
         inkscape:connector-curvature="0" />
      <path
         id="path42"
         d="m 142.77,144.15 0.65,1.14 0.66,1.87 -0.18,-0.01 -1.15,-1.34 -0.99,-1.96 -0.19,-0.86 0.18,0.01 z"
         style="fill:#ffffff"
         inkscape:connector-curvature="0" />
      <path
         id="path44"
         d="m 209.91,149.06 1.14,2.3 0.15,1 -0.01,1.71 -0.18,-0.01 -0.96,-1.21 -0.82,-1.63 -0.17,-0.49 -0.15,-1.16 v -1.65 z"
         style="fill:#ffffff"
         inkscape:connector-curvature="0" />
      <path
         id="path46"
         d="m 209.75,169.7 0.96,1.65 0.18,0.87 -0.16,-0.03 -1.17,-1.82 -0.34,-0.65 0.02,-0.51 z"
         style="fill:#ffffff"
         inkscape:connector-curvature="0" />
      <path
         id="path48"
         d="m 99.44,108.06 0.16,1.23 -0.17,1.1 -0.5,0.78 -0.77,0.37 -0.97,-0.07 -1.04,-0.5 -1.02,-0.88 -0.88,-1.17 -0.64,-1.33 -0.34,-1.35 v -1.21 l 0.34,-0.95 0.64,-0.58 0.88,-0.16 1.02,0.29 1.04,0.7 0.22,0.24"
         inkscape:connector-curvature="0"
         style="stroke:#000020;stroke-width:0.141" />
      <path
         id="path50"
         d="m 99.6,89.82 v 1.06 l -0.15,1.05 -0.46,0.76 -0.7,0.41 -0.89,0.01 -0.99,-0.39 -0.98,-0.75 -0.89,-1.03 -0.71,-1.22 -0.45,-1.29 -0.16,-1.23 v -2.47 l 0.16,-1.05 0.45,-0.76 0.71,-0.41 0.89,-0.01 0.98,0.39 -3.19,1.84"
         inkscape:connector-curvature="0"
         style="stroke:#000020;stroke-width:0.141" />
      <path
         id="path52"
         d="m 93.22,87.2 3.99,-2.3"
         inkscape:connector-curvature="0"
         style="stroke:#000020;stroke-width:0.141" />
      <path
         id="path54"
         d="m 99.44,71.24 0.16,1.23 -0.17,1.09 -0.5,0.78 -0.77,0.38 -0.97,-0.07 -1.04,-0.5 -1.02,-0.89 -0.88,-1.17 -0.64,-1.33 -0.34,-1.34 V 68.2 l 0.34,-0.94 0.64,-0.59 0.88,-0.16 1.02,0.29 1.04,0.71 0.22,0.24"
         inkscape:connector-curvature="0"
         style="stroke:#000020;stroke-width:0.141" />
      <path
         id="path56"
         d="m 97.21,50.54 -3.99,2.3 0.16,1.23 0.45,1.29 0.71,1.22 0.89,1.03 0.98,0.75 0.99,0.39 0.89,-0.01 0.7,-0.4 0.46,-0.77 0.15,-1.03 v -1.08"
         inkscape:connector-curvature="0"
         style="stroke:#000020;stroke-width:0.141" />
      <path
         id="path58"
         d="m 93.22,52.84 v -2.47 l 0.16,-1.04 0.45,-0.77 0.71,-0.41 0.89,-0.01 0.98,0.39 -3.19,1.84"
         inkscape:connector-curvature="0"
         style="stroke:#000020;stroke-width:0.141" />
      <path
         id="path60"
         d="m 99.44,34.41 0.16,1.23 -0.17,1.1 -0.5,0.78 -0.77,0.37 -0.97,-0.07 -1.04,-0.5 -1.02,-0.89 -0.88,-1.17 -0.64,-1.33 -0.34,-1.34 v -1.21 l 0.34,-0.95 0.64,-0.59 0.88,-0.15 1.02,0.29 1.04,0.7 0.22,0.24"
         inkscape:connector-curvature="0"
         style="stroke:#000020;stroke-width:0.141" />
      <path
         id="path62"
         d="m 93.42,24.02 14.01,8.09 v 1.69 l 0.4,-0.34 0.18,-0.31 v -0.38 l -0.2,-0.36 -0.38,-0.3"
         inkscape:connector-curvature="0"
         style="stroke:#000020;stroke-width:0.141" />
      <path
         id="path64"
         d="m 96.41,82.89 0.8,0.61"
         inkscape:connector-curvature="0"
         style="stroke:#000020;stroke-width:0.141" />
      <path
         id="path66"
         d="m 96.41,48.53 0.8,0.61"
         inkscape:connector-curvature="0"
         style="stroke:#000020;stroke-width:0.141" />
      <path
         id="path68"
         d="m 100.71,117.99 v -26.84 0.69 l 0.38,0.97 0.75,0.9 1.08,0.78 1.04,0.61 1.44,0.62 1.34,0.19 1.19,-0.26 0.95,-0.7 0.68,-1.08 0.34,-1.42 v -1.66 l -0.34,-1.82 -2.66,1.53 v 1.69 l -0.38,-0.3 -0.2,-0.36 v -0.38 l 0.2,-0.35 0.38,-0.3"
         inkscape:connector-curvature="0"
         style="stroke:#000020;stroke-width:0.141" />
      <path
         id="path70"
         d="m 100.71,91.15 v -0.31 l 0.38,-0.97 0.75,-0.9 1.08,-0.78 4.51,-2.6 v -0.97 l 0.5,0.69 0.95,1.8 0.68,1.86"
         inkscape:connector-curvature="0"
         style="stroke:#000020;stroke-width:0.141" />
      <path
         id="path72"
         d="m 102.92,42.7 v 37.98 l -1.08,-0.78 -0.75,-0.9 -0.38,-0.97 v -38.8 0.82 l 0.38,0.98 0.75,0.89 1.08,0.78 9.49,5.49 3.99,6.9 v 3.45 l 0.17,1.76 0.51,1.85 0.82,1.84 1.08,1.73 1.28,1.51 1.4,1.2 1.38,0.8 1.46,0.45 1.27,-0.04 1.08,-0.48 0.81,-0.89 0.42,-1.02"
         inkscape:connector-curvature="0"
         style="stroke:#000020;stroke-width:0.141" />
      <path
         id="path74"
         d="m 100.71,39.23 v -0.17 l 0.38,-0.98 0.75,-0.89 1.08,-0.78 4.51,-2.61"
         inkscape:connector-curvature="0"
         style="stroke:#000020;stroke-width:0.141" />
      <path
         id="path76"
         d="M 102.92,132.47 V 94.49"
         inkscape:connector-curvature="0"
         style="stroke:#000020;stroke-width:0.141" />
      <path
         id="path78"
         d="m 103.96,95.1 3.99,-2.31 -1.05,-0.6"
         inkscape:connector-curvature="0"
         style="stroke:#000020;stroke-width:0.141" />
      <path
         id="path80"
         d="m 102.92,80.68 1.04,0.61 1.06,0.75 0.49,0.57 0.73,0.56 0.5,0.51 0.69,0.94"
         inkscape:connector-curvature="0"
         style="stroke:#000020;stroke-width:0.141" />
      <path
         id="path82"
         d="m 105.02,82.04 0.38,0.27 0.84,0.86"
         inkscape:connector-curvature="0"
         style="stroke:#000020;stroke-width:0.141" />
      <path
         id="path84"
         d="m 107.43,85.59 0.38,-0.3 0.04,-0.08"
         inkscape:connector-curvature="0"
         style="stroke:#000020;stroke-width:0.141" />
      <path
         id="path86"
         d="m 106.9,40.4 -0.38,-0.3 -0.2,-0.36 v -0.37 l 0.2,-0.36 0.38,-0.3 v 1.69 l 4.52,2.61 V 36.1 l -4.52,2.61"
         inkscape:connector-curvature="0"
         style="stroke:#000020;stroke-width:0.141" />
      <path
         id="path88"
         d="m 107.95,92.79 1.43,0.63 0.27,0.04"
         inkscape:connector-curvature="0"
         style="stroke:#000020;stroke-width:0.141" />
      <path
         id="path90"
         d="m 116.45,112.99 0.11,0.89 -0.17,1.11 -0.48,0.81 -0.75,0.43 -0.3,0.06 -0.64,-0.05 -1.05,-0.41 -1.05,-0.8 -0.94,-1.1 -0.75,-1.29 -0.48,-1.37 -0.17,-1.31 0.17,-1.11 0.48,-0.81 0.75,-0.44 0.94,-0.01 1.05,0.42 0.71,0.54"
         inkscape:connector-curvature="0"
         style="stroke:#000020;stroke-width:0.141" />
      <path
         id="path92"
         d="m 113.88,71.72 -0.71,-0.54 -1.05,-0.41 -0.94,0.01 -0.75,0.43 -0.48,0.81 -0.17,1.12 0.17,1.3 0.48,1.37 0.75,1.3 0.3,0.39 0.64,0.71 1.05,0.79 1.05,0.42 0.94,-0.01 0.75,-0.43 0.48,-0.82 0.17,-1.11 -0.11,-0.89"
         inkscape:connector-curvature="0"
         style="stroke:#000020;stroke-width:0.141" />
      <path
         id="path94"
         d="m 111.42,43.01 2.21,1.27"
         inkscape:connector-curvature="0"
         style="stroke:#000020;stroke-width:0.141" />
      <path
         id="path96"
         d="m 111.42,36.1 1.07,-0.78 0.75,-0.9 0.38,-0.96"
         inkscape:connector-curvature="0"
         style="stroke:#000020;stroke-width:0.141" />
      <path
         id="path98"
         d="m 112.41,137.95 3.99,-2.3 v -3.46 l 0.17,-1.55 0.51,-1.26 0.82,-0.9 1.09,-0.48 1.27,-0.03 0.4,0.12"
         inkscape:connector-curvature="0"
         style="stroke:#000020;stroke-width:0.141" />
      <path
         id="path100"
         d="m 112.41,48.19 3.99,-2.31"
         inkscape:connector-curvature="0"
         style="stroke:#000020;stroke-width:0.141" />
      <path
         id="path102"
         d="m 116.4,135.65 3.98,-2.31"
         inkscape:connector-curvature="0"
         style="stroke:#000020;stroke-width:0.141" />
      <path
         id="path104"
         d="m 116.4,132.19 3.98,-2.3"
         inkscape:connector-curvature="0"
         style="stroke:#000020;stroke-width:0.141" />
      <path
         id="path106"
         d="m 116.4,58.54 3.98,-2.3"
         inkscape:connector-curvature="0"
         style="stroke:#000020;stroke-width:0.141" />
      <path
         id="path108"
         d="m 116.4,55.09 3.98,-2.3"
         inkscape:connector-curvature="0"
         style="stroke:#000020;stroke-width:0.141" />
      <path
         id="path110"
         d="m 123.11,80.67 0.17,-0.1 -0.39,0.23 -1.79,1.6 -1.49,1.99 -1.18,2.36 -0.87,2.68 -0.51,2.98 -0.18,3.23 0.18,3.43 0.51,3.58 0.87,3.68 1.18,3.73 1.49,3.72 1.79,3.65 2.04,3.54 2.27,3.37 2.47,3.15 2.64,2.89 2.75,2.58 2.85,2.25 2.88,1.86 2.88,1.46 2.84,1.04 2.76,0.6 2.64,0.16 2.47,-0.3 2.27,-0.75 2.04,-1.18 0.86,-0.76"
         inkscape:connector-curvature="0"
         style="stroke:#000020;stroke-width:0.141" />
      <path
         id="path112"
         d="m 123.28,80.57 1.64,-0.94 1.1,-0.37"
         inkscape:connector-curvature="0"
         style="stroke:#000020;stroke-width:0.141" />
      <path
         id="path114"
         d="m 164.91,88.52 -0.42,1.01 -0.81,0.89 -1.08,0.48 -1.28,0.04 -1.4,-0.41 -0.44,-0.26 -1,-0.57 -1.4,-1.21 -1.27,-1.51 -1,-1.6 -0.9,-1.97 -0.51,-1.85 -0.18,-1.76 v -3.45 l -3.98,-6.9 -16.9,-9.76"
         inkscape:connector-curvature="0"
         style="stroke:#000020;stroke-width:0.141" />
      <path
         id="path116"
         d="m 144.06,147.35 0.12,0.88 -0.17,1.12 -0.48,0.81 -0.75,0.43 -0.94,0.01 -1.05,-0.41 -1.05,-0.8 -0.94,-1.1 -0.75,-1.29 -0.48,-1.37 -0.17,-1.31 0.17,-1.11 0.48,-0.81 0.75,-0.44 0.94,-0.01 1.05,0.42 0.71,0.54"
         inkscape:connector-curvature="0"
         style="stroke:#000020;stroke-width:0.141" />
      <path
         id="path118"
         d="m 144.06,73.7 0.12,0.88 -0.17,1.11 -0.48,0.82 -0.75,0.43 -0.94,0.01 -1.05,-0.41 -1.05,-0.8 -0.94,-1.1 -0.75,-1.3 -0.48,-1.37 -0.17,-1.3 0.17,-1.11 0.48,-0.82 0.75,-0.43 0.94,-0.01 1.05,0.41 0.71,0.54"
         inkscape:connector-curvature="0"
         style="stroke:#000020;stroke-width:0.141" />
      <path
         id="path120"
         d="m 149.24,159.21 3.98,-2.3 v -3.45 l 0.18,-1.56 0.51,-1.26 0.82,-0.89 1.08,-0.49 1.27,-0.03 0.41,0.12"
         inkscape:connector-curvature="0"
         style="stroke:#000020;stroke-width:0.141" />
      <path
         id="path122"
         d="m 149.24,69.45 3.98,-2.3"
         inkscape:connector-curvature="0"
         style="stroke:#000020;stroke-width:0.141" />
      <path
         id="path124"
         d="m 153.22,156.91 3.97,-2.29"
         inkscape:connector-curvature="0"
         style="stroke:#000020;stroke-width:0.141" />
      <path
         id="path126"
         d="m 153.22,153.46 3.99,-2.31"
         inkscape:connector-curvature="0"
         style="stroke:#000020;stroke-width:0.141" />
      <path
         id="path128"
         d="m 153.22,79.8 3.99,-2.3"
         inkscape:connector-curvature="0"
         style="stroke:#000020;stroke-width:0.141" />
      <path
         id="path130"
         d="m 153.22,76.35 3.99,-2.3"
         inkscape:connector-curvature="0"
         style="stroke:#000020;stroke-width:0.141" />
      <path
         id="path132"
         d="m 171.68,144.88 0.12,0.89 -0.17,1.11 -0.48,0.81 -0.75,0.44 -0.94,0.01 -1.05,-0.42 -1.05,-0.79 -0.94,-1.1 -0.75,-1.3 -0.48,-1.37 -0.17,-1.31 0.17,-1.11 0.48,-0.81 0.74,-0.43 0.95,-0.01 1.05,0.41 0.71,0.54"
         inkscape:connector-curvature="0"
         style="stroke:#000020;stroke-width:0.141" />
      <path
         id="path134"
         d="m 169.12,103.61 -0.71,-0.54 -1.05,-0.41 -0.65,-0.04 -0.3,0.05 -0.74,0.43 -0.48,0.82 -0.17,1.11 0.17,1.3 0.48,1.37 0.75,1.3 0.94,1.1 1.05,0.8 1.05,0.41 0.94,-0.01 0.75,-0.43 0.48,-0.82 0.17,-1.11 -0.12,-0.89"
         inkscape:connector-curvature="0"
         style="stroke:#000020;stroke-width:0.141" />
      <path
         id="path136"
         d="m 169.17,80.95 9.49,5.49 v 37.97"
         inkscape:connector-curvature="0"
         style="stroke:#000020;stroke-width:0.141" />
      <path
         id="path138"
         d="m 181.6,135.32 -3.99,2.3 -1.43,-1.03 -1.34,-1.37 -1.19,-1.63 -0.96,-1.8 -0.67,-1.86 -0.34,-1.81 v -1.67 l 0.34,-1.41 0.67,-1.09 0.96,-0.69 1.19,-0.26 1.07,0.14"
         inkscape:connector-curvature="0"
         style="stroke:#000020;stroke-width:0.141" />
      <path
         id="path140"
         d="m 177.61,137.62 1.05,0.6 v 37.98"
         inkscape:connector-curvature="0"
         style="stroke:#000020;stroke-width:0.141" />
      <path
         id="path142"
         d="m 178.66,138.22 1.35,0.62 1.56,0.44 1.68,0.22 h 1.73 l 1.68,-0.22 1.56,-0.44 1.35,-0.62 v 37.98"
         inkscape:connector-curvature="0"
         style="stroke:#000020;stroke-width:0.141" />
      <path
         id="path144"
         d="m 178.66,86.44 1.35,0.62 1.56,0.43 1.68,0.22 h 1.73 l 1.68,-0.22 1.56,-0.43 1.35,-0.62 4.51,-2.61 v 37.98"
         inkscape:connector-curvature="0"
         style="stroke:#000020;stroke-width:0.141" />
      <path
         id="path146"
         d="m 189.57,138.22 4.51,-2.6 v 37.97"
         inkscape:connector-curvature="0"
         style="stroke:#000020;stroke-width:0.141" />
      <path
         id="path148"
         d="M 189.57,124.41 V 86.44"
         inkscape:connector-curvature="0"
         style="stroke:#000020;stroke-width:0.141" />
      <path
         id="path150"
         d="m 194.08,135.62 0.53,-0.22 0.62,-0.12 h 0.65 l 0.61,0.12 0.53,0.22 v 37.97"
         inkscape:connector-curvature="0"
         style="stroke:#000020;stroke-width:0.141" />
      <path
         id="path152"
         d="m 194.08,83.83 0.53,-0.22 0.62,-0.12 h 0.65 l 0.61,0.12 0.53,0.22 v 37.98"
         inkscape:connector-curvature="0"
         style="stroke:#000020;stroke-width:0.141" />
      <path
         id="path154"
         d="m 197.02,135.62 1,0.57 0.92,0.37 0.83,-0.01 0.67,-0.38 0.42,-0.72 0.15,-0.98 -2.99,1.72"
         inkscape:connector-curvature="0"
         style="stroke:#000020;stroke-width:0.141" />
      <path
         id="path156"
         d="m 197.02,83.83 14.01,8.09 3.98,6.9 v 80.56 l -3.98,2.3"
         inkscape:connector-curvature="0"
         style="stroke:#000020;stroke-width:0.141" />
      <path
         id="path158"
         d="m 201.01,134.47 v -1.15"
         inkscape:connector-curvature="0"
         style="stroke:#000020;stroke-width:0.141" />
      <path
         id="path160"
         d="m 211.06,172.51 0.17,1.23 -0.18,1.1 -0.5,0.77 -0.77,0.38 -0.96,-0.07 -1.05,-0.5 -1.02,-0.89 -0.87,-1.17 -0.65,-1.33 -0.34,-1.34 -0.04,-0.63 0.04,-0.58 0.34,-0.95 0.65,-0.59 0.87,-0.15 1.02,0.29 1.05,0.7 0.22,0.24"
         inkscape:connector-curvature="0"
         style="stroke:#000020;stroke-width:0.141" />
      <path
         id="path162"
         d="m 211.23,154.26 v 1.07 l -0.16,1.05 -0.45,0.76 -0.71,0.41 -0.89,0.01 -0.99,-0.39 -0.98,-0.75 -0.89,-1.04 -0.7,-1.22 -0.46,-1.29 -0.15,-1.22 3.98,-2.31"
         inkscape:connector-curvature="0"
         style="stroke:#000020;stroke-width:0.141" />
      <path
         id="path164"
         d="m 204.85,151.65 v -2.47 l 0.15,-1.05 0.46,-0.77 0.7,-0.4 0.89,-0.01 0.97,0.4 -3.17,1.83"
         inkscape:connector-curvature="0"
         style="stroke:#000020;stroke-width:0.141" />
      <path
         id="path166"
         d="m 211.06,135.68 0.17,1.23 -0.18,1.1 -0.5,0.78 -0.77,0.37 -0.96,-0.07 -1.05,-0.5 -1.02,-0.88 -0.87,-1.17 -0.65,-1.33 -0.34,-1.35 -0.04,-0.63 0.04,-0.58 0.34,-0.95 0.65,-0.58 0.87,-0.16 1.02,0.29 1.05,0.7 0.22,0.24"
         inkscape:connector-curvature="0"
         style="stroke:#000020;stroke-width:0.141" />
      <path
         id="path168"
         d="m 211.23,119.9 v 1.07 l -0.16,1.05 -0.45,0.76 -0.71,0.41 -0.89,0.01 -0.99,-0.39 -0.98,-0.75 -0.89,-1.04 -0.7,-1.22 -0.46,-1.29 -0.15,-1.23 v -2.46 l 3.17,-1.83 -0.97,-0.4 -0.89,0.01 -0.7,0.41 -0.46,0.76 -0.15,1.05"
         inkscape:connector-curvature="0"
         style="stroke:#000020;stroke-width:0.141" />
      <path
         id="path170"
         d="m 204.85,117.28 3.98,-2.3"
         inkscape:connector-curvature="0"
         style="stroke:#000020;stroke-width:0.141" />
      <path
         id="path172"
         d="m 211.06,98.86 0.17,1.23 -0.18,1.09 -0.5,0.78 -0.77,0.38 -0.96,-0.07 -1.05,-0.5 -1.02,-0.89 -0.87,-1.17 -0.65,-1.33 -0.34,-1.34 -0.04,-0.63 0.04,-0.58 0.34,-0.95 0.65,-0.59 0.87,-0.16 1.02,0.29 1.05,0.71 0.22,0.24"
         inkscape:connector-curvature="0"
         style="stroke:#000020;stroke-width:0.141" />
      <path
         id="path174"
         d="m 208.02,147.35 0.81,0.59"
         inkscape:connector-curvature="0"
         style="stroke:#000020;stroke-width:0.141" />
      <path
         id="path176"
         d="m 208.02,112.99 0.81,0.59"
         inkscape:connector-curvature="0"
         style="stroke:#000020;stroke-width:0.141" />
      <path
         id="path178"
         d="m 211.03,91.92 3.98,-2.3"
         inkscape:connector-curvature="0"
         style="stroke:#000020;stroke-width:0.141" />
      <path
         id="path180"
         d="m 215.01,179.38 3.99,-2.3"
         inkscape:connector-curvature="0"
         style="stroke:#000020;stroke-width:0.141" />
      <path
         id="path182"
         d="M 215.01,98.82 219,96.52"
         inkscape:connector-curvature="0"
         style="stroke:#000020;stroke-width:0.141" />
      <path
         id="path186"
         d="m 89.64,26.2 -0.2,0.12 7.97,-4.6 14.01,8.08 1.07,0.78 0.75,0.9 0.39,0.97 v 11.83 l 2.77,1.6 3.98,6.91 v 3.45 l 0.18,1.75 0.51,1.86 0.82,1.84 1.08,1.72 1.27,1.52 1.4,1.2 1.44,0.83 1,0.29 0.1,-0.25 0.18,-1.55 V 62 l 7.97,-4.61 16.89,9.76 3.99,6.9 v 3.45 l 0.17,1.76 0.52,1.85 0.81,1.84 1.08,1.73 1.28,1.51 1.4,1.2 1.44,0.84 1,0.29 0.1,-0.26 0.17,-1.55 v -3.45 l 7.98,-4.61 9.49,5.48 0.52,0.22 0.62,0.12 h 0.65 l 0.62,-0.12 0.52,-0.22 4.52,-2.6 1.35,-0.62 1.54,-0.43 1.7,-0.23 h 1.72 l 1.69,0.22 1.56,0.44 1.35,0.62 14,8.09 3.99,6.9 v 80.56 l -7.97,4.6 -14.01,-8.09 -0.53,-0.22 -0.61,-0.11 h -0.65 l -0.62,0.11 -0.53,0.22 -4.51,2.61 -1.35,0.62 -1.56,0.43 -1.68,0.23 h -1.73 l -1.68,-0.23 -1.56,-0.43 -1.35,-0.62 -9.49,-5.48 -3.99,-6.91 v -3.45 l -0.17,-1.75 -0.51,-1.85 -0.82,-1.85 -1.08,-1.72 -1.28,-1.51 -1.4,-1.21 -1.44,-0.83 -0.99,-0.29 -0.11,0.25 -0.17,1.55 -0.02,3.47 -7.95,4.59 -16.9,-9.75 -3.98,-6.91 v -3.45 l -0.18,-1.75 -0.51,-1.86 -0.82,-1.84 -1.08,-1.72 -1.27,-1.51 -1.4,-1.21 -1.44,-0.83 -1,-0.29 -0.1,0.25 -0.18,1.55 v 3.45 l -7.97,4.61 -9.49,-5.48 -1.08,-0.78 -0.75,-0.9 -0.38,-0.97 v -11.83 l -7.29,-4.21 -3.98,-6.9 V 26.32 l 0.34,-0.2"
         inkscape:connector-curvature="0"
         style="stroke:#000020;stroke-width:0.176" />
      <path
         id="path188"
         d="m 98.02,106.15 -0.43,-0.87 -0.18,-0.71 0.75,0.81 0.77,1.26 0.51,1.42 -0.32,-0.28 -0.88,-1.17 -0.22,-0.46"
         inkscape:connector-curvature="0"
         style="stroke:#000020;stroke-width:0.176" />
      <path
         id="path190"
         d="m 97.82,87.41 0.7,1.23 0.89,1.03 0.19,0.15 v -1.4 L 99.45,87.19 98.99,85.9 98.29,84.68 97.4,83.64 97.21,83.5 v 1.4 l 0.16,1.23 0.45,1.28"
         inkscape:connector-curvature="0"
         style="stroke:#000020;stroke-width:0.176" />
      <path
         id="path192"
         d="m 97.97,69.23 -0.38,-0.77 -0.18,-0.71 0.75,0.8 0.77,1.27 0.51,1.42 -0.32,-0.28 -0.88,-1.17 -0.27,-0.56"
         inkscape:connector-curvature="0"
         style="stroke:#000020;stroke-width:0.176" />
      <path
         id="path194"
         d="m 98.23,53.77 -0.41,-0.72 -0.45,-1.28 -0.16,-1.23 v -1.4 l 0.19,0.14 0.89,1.04 0.7,1.22 0.46,1.29 0.15,1.22 v 1.41 l -0.19,-0.15 -0.89,-1.03 -0.29,-0.51"
         inkscape:connector-curvature="0"
         style="stroke:#000020;stroke-width:0.176" />
      <path
         id="path196"
         d="m 97.47,31.15 0.12,0.48 0.65,1.33 0.88,1.17 0.32,0.28 -0.51,-1.42 -0.77,-1.26 -0.75,-0.81 0.06,0.23"
         inkscape:connector-curvature="0"
         style="stroke:#000020;stroke-width:0.176" />
      <path
         id="path198"
         d="m 114.16,109.62 -0.23,-0.65 -0.05,-0.42 0.34,0.25 0.94,1.1 0.75,1.3 0.48,1.37 0.06,0.42 -0.34,-0.26 -0.95,-1.1 -0.74,-1.3 -0.26,-0.71"
         inkscape:connector-curvature="0"
         style="stroke:#000020;stroke-width:0.176" />
      <path
         id="path200"
         d="m 114.41,73.49 -0.48,-1.35 -0.05,-0.42 0.34,0.26 0.94,1.1 0.75,1.29 0.48,1.37 0.06,0.42 -0.34,-0.25 -0.65,-0.71 -0.3,-0.39 -0.75,-1.32"
         inkscape:connector-curvature="0"
         style="stroke:#000020;stroke-width:0.176" />
      <path
         id="path202"
         d="m 121.34,98.91 -0.31,-2.14 -0.17,-3.43 0.17,-3.23 0.52,-2.98 0.86,-2.69 1.19,-2.35 1.49,-1.99 0.93,-0.84 1.18,-0.38 2.47,-0.3 2.64,0.15 2.75,0.6 2.85,1.04 2.88,1.46 2.88,1.87 2.84,2.24 2.76,2.58 2.64,2.89 2.47,3.16 2.27,3.37 2.04,3.53 1.79,3.66 1.49,3.72 1.18,3.72 0.86,3.68 0.52,3.58 0.18,3.43 -0.18,3.23 -0.52,2.98 -0.86,2.69 -1.18,2.35 -1.49,2 -0.93,0.83 -1.19,0.39 -2.47,0.29 -2.63,-0.15 -2.76,-0.6 -2.84,-1.04 -2.88,-1.46 -2.89,-1.87 -2.84,-2.24 -2.76,-2.58 -2.63,-2.89 -2.47,-3.15 -2.27,-3.37 -2.05,-3.54 -1.78,-3.66 -1.49,-3.71 -1.19,-3.73 -0.86,-3.68 -0.21,-1.44"
         inkscape:connector-curvature="0"
         style="stroke:#000020;stroke-width:0.176" />
      <path
         id="path204"
         d="m 142.04,144.69 -0.49,-1.37 -0.05,-0.41 0.34,0.25 0.94,1.1 0.75,1.3 0.48,1.37 0.05,0.42 -0.33,-0.26 -0.95,-1.1 -0.74,-1.3"
         inkscape:connector-curvature="0"
         style="stroke:#000020;stroke-width:0.176" />
      <path
         id="path206"
         d="m 142.04,71.04 -0.49,-1.37 -0.05,-0.42 0.34,0.26 0.94,1.1 0.75,1.3 0.48,1.37 0.05,0.42 -0.33,-0.26 -0.95,-1.1 -0.74,-1.3"
         inkscape:connector-curvature="0"
         style="stroke:#000020;stroke-width:0.176" />
      <path
         id="path208"
         d="m 169.55,141.92 0.1,0.31 0.75,1.3 0.95,1.1 0.33,0.25 -0.05,-0.42 -0.48,-1.37 -0.75,-1.3 -0.3,-0.39 -0.64,-0.71 -0.34,-0.25 0.05,0.42 0.38,1.06"
         inkscape:connector-curvature="0"
         style="stroke:#000020;stroke-width:0.176" />
      <path
         id="path210"
         d="m 169.65,105.4 -0.48,-1.37 -0.05,-0.42 0.34,0.26 0.94,1.1 0.75,1.3 0.48,1.37 0.05,0.41 -0.33,-0.25 -0.95,-1.1 -0.75,-1.3"
         inkscape:connector-curvature="0"
         style="stroke:#000020;stroke-width:0.176" />
      <path
         id="path212"
         d="m 176.68,129.49 -0.67,-1.86 -0.34,-1.81 v -1.67 l 0.24,-1.01 0.27,0.04 1.43,0.63 1.05,0.6 1.35,0.62 1.56,0.44 1.68,0.22 h 1.73 l 1.68,-0.22 1.56,-0.44 1.35,-0.62 4.51,-2.6 0.53,-0.22 0.62,-0.12 h 0.65 l 0.61,0.12 0.53,0.22 1,0.57 0.92,0.71 0.83,0.97 0.67,1.14 0.42,1.21 0.15,1.15 v 5.76 l -1.35,-0.63 -1.56,-0.43 -1.69,-0.22 h -1.72 l -1.7,0.22 -1.54,0.43 -1.35,0.63 -4.52,2.6 -0.52,0.22 -0.62,0.12 h -0.65 l -0.62,-0.12 -0.52,-0.22 -1.05,-0.6 -1.43,-1.03 -1.35,-1.37 -1.18,-1.63 -0.96,-1.8"
         inkscape:connector-curvature="0"
         style="stroke:#000020;stroke-width:0.176" />
      <path
         id="path214"
         d="m 209.04,169.02 0.18,0.71 0.64,1.33 0.88,1.17 0.32,0.28 -0.51,-1.42 -0.77,-1.27 -0.74,-0.8"
         inkscape:connector-curvature="0"
         style="stroke:#000020;stroke-width:0.176" />
      <path
         id="path216"
         d="m 209.17,151.09 -0.18,-0.52 -0.16,-1.23 v -1.4 l 0.19,0.15 0.89,1.03 0.71,1.22 0.45,1.29 0.16,1.23 v 1.4 l -0.19,-0.14 -0.89,-1.04 -0.71,-1.22 -0.27,-0.77"
         inkscape:connector-curvature="0"
         style="stroke:#000020;stroke-width:0.176" />
      <path
         id="path218"
         d="m 209.16,132.69 -0.12,-0.5 0.74,0.81 0.77,1.26 0.51,1.42 -0.32,-0.28 -0.88,-1.17 -0.64,-1.33 -0.06,-0.21"
         inkscape:connector-curvature="0"
         style="stroke:#000020;stroke-width:0.176" />
      <path
         id="path220"
         d="m 209.1,116.54 -0.11,-0.33 -0.16,-1.23 v -1.4 l 0.19,0.15 0.89,1.03 0.71,1.22 0.45,1.29 0.16,1.23 v 1.4 l -0.19,-0.14 -0.89,-1.04 -0.71,-1.22 -0.34,-0.96"
         inkscape:connector-curvature="0"
         style="stroke:#000020;stroke-width:0.176" />
      <path
         id="path222"
         d="m 209.17,95.89 -0.13,-0.52 0.74,0.8 0.77,1.27 0.51,1.42 -0.32,-0.28 -0.88,-1.17 -0.64,-1.33 -0.05,-0.19"
         inkscape:connector-curvature="0"
         style="stroke:#000020;stroke-width:0.176" />
    </g>
    <g
       id="g227" />
  </g>
</svg>
