<?xml version="1.0" encoding="UTF-8" standalone="no"?>
<svg
   xmlns:dc="http://purl.org/dc/elements/1.1/"
   xmlns:cc="http://creativecommons.org/ns#"
   xmlns:rdf="http://www.w3.org/1999/02/22-rdf-syntax-ns#"
   xmlns:svg="http://www.w3.org/2000/svg"
   xmlns="http://www.w3.org/2000/svg"
   xmlns:sodipodi="http://sodipodi.sourceforge.net/DTD/sodipodi-0.dtd"
   xmlns:inkscape="http://www.inkscape.org/namespaces/inkscape"
   width="1122.5197"
   height="600"
   viewBox="0 0 297 158.75"
   version="1.1"
   id="svg172"
   sodipodi:docname="REV-41-1625.svg"
   style="fill:none;fill-rule:evenodd;stroke-linecap:round;stroke-linejoin:round"
   inkscape:version="0.92.5 (2060ec1f9f, 2020-04-08)">
  <metadata
     id="metadata176">
    <rdf:RDF>
      <cc:Work
         rdf:about="">
        <dc:format>image/svg+xml</dc:format>
        <dc:type
           rdf:resource="http://purl.org/dc/dcmitype/StillImage" />
        <dc:title></dc:title>
      </cc:Work>
    </rdf:RDF>
  </metadata>
  <sodipodi:namedview
     pagecolor="#ffffff"
     bordercolor="#666666"
     borderopacity="1"
     objecttolerance="10"
     gridtolerance="10"
     guidetolerance="10"
     inkscape:pageopacity="0"
     inkscape:pageshadow="2"
     inkscape:window-width="2400"
     inkscape:window-height="1271"
     id="namedview174"
     showgrid="false"
     units="px"
     inkscape:zoom="0.29734127"
     inkscape:cx="601.61751"
     inkscape:cy="396.85039"
     inkscape:window-x="2391"
     inkscape:window-y="-9"
     inkscape:window-maximized="1"
     inkscape:current-layer="svg172" />
  <desc
     id="desc2">Composer Export</desc>
  <script
     type="text/ecmascript"
     id="script4"><![CDATA[
if(typeof(top) != "undefined")
{
	top.ShowPaper = ShowPaper;
}
function ShowHotSpot(evt,hotspotid)
{
	var svgDocument = evt.target.ownerDocument;
	var strId = "hotspot."+hotspotid;
	var hotspot = svgDocument.getElementById(strId);
	if(hotspot)
		hotspot.setAttribute("opacity",".5");
}
function HideHotSpot(evt,hotspotid)
{
	var svgDocument = evt.target.ownerDocument;
	var strId = "hotspot."+hotspotid;
	var hotspot = svgDocument.getElementById(strId);
	if(hotspot)
		hotspot.setAttribute("opacity","0");

	var toolTip = svgDocument.getElementById('ToolTip');
	if(toolTip)
		toolTip.setAttribute("visibility","hidden");
}
function ShowToolTip(evt,hotspotid,strTooltip)
{
	if(strTooltip=="")
	return;

	// change text
	var svgDocument = evt.target.ownerDocument;
	var tiptext = svgDocument.getElementById('ToolTipText');
	if( !tiptext )
	return;
	tiptext.firstChild.nodeValue = " " + strTooltip + "  " ;

	// show tooltip before, else some refresh issue

	var toolTip = svgDocument.getElementById('ToolTip');
	if(!toolTip)
	return;

	toolTip.setAttribute("visibility","visible");
	toolTip.setAttribute("opacity",".95");

	// move tooltip
	// get viewbox

	var root = svgDocument.documentElement;
	var vbox = (root.getAttribute("viewBox")).split(' ');
	var x0 = parseFloat(vbox[0]);
	var y0 = parseFloat(vbox[1]);
	var vboxW = parseFloat(vbox[2]);
	var vboxH = parseFloat(vbox[3]);

	// get default width of svg

	var strW = root.getAttribute("width");
	var svgW = parseFloat(strW);
	if(strW.indexOf('mm') != -1)
	svgW *= 3.779;

	var strH = root.getAttribute("height");
	var svgH = parseFloat(strH);
	if(strH.indexOf('mm') != -1)
	svgH *= 3.779;  	// 96 dpi  -> 96/25.4 = 3.779

	// update the viewbox / width / height if svg is embedded in html with zoom fit all
	var realx0 = x0;
	var realy0 = y0;
	var realvboxW = vboxW;
	var realvboxH = vboxH;
	var realsvgW = svgW;
	var realsvgH = svgH;

	if ((typeof(top) == "undefined") || (typeof(top.svgctl1) != "undefined")) // embedded in html
	{
		// get window size in pxl

		svgW = window.innerWidth;
		svgH = window.innerHeight;

		// calculate real viewbox

		realsvgW = svgW;
		realsvgH = svgH;
		if((svgW / svgH) > (vboxW / vboxH))
		{
			realvboxW = (vboxH * svgW) / svgH;
			realvboxH = vboxH;
			realx0 = x0 - (realvboxW - vboxW)/2 ;
		}
		else
		{
			realvboxH = (vboxW * svgH) / svgW;
			realvboxW = vboxW;
			realy0 = y0 - (realvboxH - vboxH)/2 ;
		}
	}

	// get user zoom/pan

	var newScale = root.currentScale;
	var translation = root.currentTranslate;

	// transform pxl to user unit

	var xPos = (((evt.clientX+10- translation.x)/newScale) * realvboxW)/realsvgW  + realx0 ;
	var yPos = (((evt.clientY+5- translation.y)/newScale) * realvboxH)/ realsvgH  + realy0 ;
	var scaleForWidth = ( (1 / newScale) * realvboxH) / realsvgH;

	// move tooltip

	toolTip.setAttribute("transform", "translate(" + xPos + "," + yPos + ")" );

	// resize tooltip

	var fontsize = 12;
	tiptext.setAttribute("font-size",fontsize*scaleForWidth);
	tiptext.setAttribute("y", fontsize*scaleForWidth);
	var tipBG = svgDocument.getElementById('ToolTipBG');
	var outline = tiptext.getBBox();
	if(tipBG)
	{
		tipBG.setAttribute("stroke-width", 1*scaleForWidth);
		tipBG.setAttribute("width", Number(outline.width) );
		tipBG.setAttribute("height", Number(outline.height) + fontsize*.5*scaleForWidth );
	}
	var ToolTipShadow = svgDocument.getElementById('ToolTipShadow');
	if(ToolTipShadow)
	{
		ToolTipShadow.setAttribute("width", Number(outline.width) );
		ToolTipShadow.setAttribute("height", Number(outline.height) + fontsize*.5*scaleForWidth );
		ToolTipShadow.setAttribute("x", 3*scaleForWidth);
		ToolTipShadow.setAttribute("y", 3*scaleForWidth);
	}
}
function ShowPaper()
{
  var svgDocument = getDocument();
  var paper = svgDocument.getElementById("paperID");
  if(paper)
  {
    paper.setAttribute("transform","scale(1)");
    paper.setAttribute("opacity","1");
    paper.setAttribute("visibility","visible");
  }
  var svg = svgDocument.getRootElement();
  if(svg)
  {
    svg.setAttribute("width","307.000mm");
    svg.setAttribute("height","220.000mm");
    svg.setAttribute("viewBox","-5.000000 -5.000000 307.000000 220.000000");
  }
}
]]></script>
  <defs
     id="defs6" />
  <g
     id="g467"
     transform="matrix(0.83019085,0,0,0.83019085,26.893642,-7.5169242)">
    <path
       style="fill:#e8e8e8"
       d="m 144.06,17.25 2.79,0.65 1.47,0.66 87.94,50.77 2.29,1.47 0.84,0.96 0.64,1.33 v 63.77 l -0.33,0.81 -0.82,1.15 -1.47,1.15 -0.17,0.98 -0.49,1.8 -0.79,1.17 -83.27,48.08 -2.25,-0.01 -0.98,-0.33 -1.13,-0.51 -16.87,-9.82 -0.49,-0.65 -0.03,-9.61 0.62,-0.7 4.75,-2.78 43.27,-25.02 16.26,-20.93 0.16,-0.19 -0.02,-0.2 -36.36,-20.99 -0.16,7.12 -0.64,1 -60.93,35.2 -10.71,6.15 -0.98,0.34 h -8.47 l -0.98,-0.34 -3.58,-1.98 -13.6,-7.85 -1.64,-1.31 -1.47,-1.48 -1.17,-1.62 -1.47,-2.94 -0.66,-2.46 -0.21,-2.29 0.33,-2.46 0.66,-2.13 0.46,-1.17 1.48,-2.62 4.35,-5.64 70.75,-91.38 1.87,-2.39 2.31,-1.45 1.47,-0.66 1.81,-0.49 2.13,-0.32 h 2.34 z"
       id="path10"
       inkscape:connector-curvature="0" />
    <path
       style="fill:#ffffff"
       d="m 176.83,43.27 1.31,1.96 0.8,1.99 0.32,1.82 -0.29,-0.02 -1.33,-1.16 -1.14,-1.31 -1.17,-2.44 -0.33,-0.97 0.01,-1.51 z"
       id="path12"
       inkscape:connector-curvature="0" />
    <path
       style="fill:#ffffff"
       d="m 203.5,58.36 0.84,0.96 0.98,1.47 0.8,1.66 0.33,1.31 v 1.05 l -0.3,-0.06 -1.49,-1.33 -1.16,-1.62 -0.99,-2.29 -0.16,-0.66 -0.04,-1.33 0.2,-0.01 z"
       id="path14"
       inkscape:connector-curvature="0" />
    <path
       style="fill:#ffffff"
       d="m 182.54,59.18 1.65,0.31 2.12,0.83 2.78,1.48 2.97,2.11 0.98,0.81 2.78,2.79 2.29,2.79 1.3,1.82 1.98,3.25 1.79,3.62 1.31,3.28 0.98,3.43 0.65,4.1 v 4.64 l -0.49,2.62 -0.82,2.29 -0.98,1.63 -0.63,0.85 -0.73,0.26 -3.22,-0.01 -1.16,-0.15 -2.94,-1 -1.78,-0.83 -2.79,-1.8 -2.62,-2.13 -2.29,-2.29 -2.3,-2.78 -2.45,-3.61 -2.31,-4.24 -1.64,-4.25 -0.66,-1.96 -0.65,-2.96 -0.32,-2.62 v -4.54 l 0.32,-2.13 0.77,-2.51 0.97,-1.81 0.99,-1.13 0.32,-0.17 1.7,-0.16 z"
       id="path16"
       inkscape:connector-curvature="0" />
    <path
       style="fill:#ffffff"
       d="m 162.42,61.94 0.97,1.15 1.3,1.98 0.82,2.62 0.01,0.88 -1.64,-1.21 -1.32,-1.8 -0.82,-1.63 -0.33,-1.14 -0.21,-1.66 0.21,-0.02 z"
       id="path18"
       inkscape:connector-curvature="0" />
    <path
       style="fill:#ffffff"
       d="m 143.25,83.07 0.82,0.49 0.15,2.15 0.33,1.14 1.66,2.96 -0.02,0.22 -0.31,-0.06 -4.6,-2.8 -1.13,-1.32 -0.52,-1.12 -0.23,-1.16 0.83,-0.5 2.03,-0.15 z"
       id="path20"
       inkscape:connector-curvature="0" />
    <path
       style="fill:#ffffff"
       d="m 217.28,93.73 -0.15,0.4 -0.59,0.76 h -0.25 l -0.34,-1.32 -0.05,-0.84 0.21,-0.02 z"
       id="path22"
       inkscape:connector-curvature="0" />
    <path
       style="fill:#ffffff"
       d="m 176.83,97.97 1.31,1.96 0.81,1.81 0.31,2 -0.29,-0.02 -1.33,-1.16 -0.97,-1.15 -1.17,-2.11 -0.5,-1.47 0.01,-1.5 z"
       id="path24"
       inkscape:connector-curvature="0" />
    <path
       style="fill:#ffffff"
       d="m 202.71,112.38 v 0.4 l -0.35,0.34 -0.05,-0.91 0.21,-0.02 z"
       id="path26"
       inkscape:connector-curvature="0" />
    <path
       d="m 52.91,128.27 4.44,2.57 0.11,0.9 0.34,0.95 0.52,0.9 0.65,0.77 0.73,0.55 v 5.12"
       id="path28"
       inkscape:connector-curvature="0"
       style="stroke:#000020;stroke-width:0.141" />
    <path
       d="M 144.06,83.49 V 21.26 l -0.84,-0.35 -0.99,-0.19 h -1.04 l -0.99,0.19 -0.84,0.35 v 62.23 l -82.01,47.35 v -0.37 l -4.44,-2.56"
       id="path30"
       inkscape:connector-curvature="0"
       style="stroke:#000020;stroke-width:0.141" />
    <path
       d="m 57.35,130.47 0.15,-1.81 0.45,-1.92 0.73,-1.93 0.98,-1.88 1.19,-1.75 -4.43,-2.56"
       id="path32"
       inkscape:connector-curvature="0"
       style="stroke:#000020;stroke-width:0.141" />
    <path
       d="m 141.71,87.56 -82.01,47.35 16.53,9.54 0.87,0.39 1.01,0.24 1.08,0.08 v 5.13"
       id="path34"
       inkscape:connector-curvature="0"
       style="stroke:#000020;stroke-width:0.141" />
    <path
       d="m 60.85,121.18 75.7,-97.79 0.75,-0.81 0.81,-0.6 1.25,-0.72 -4.44,-2.56"
       id="path36"
       inkscape:connector-curvature="0"
       style="stroke:#000020;stroke-width:0.141" />
    <path
       d="m 70.65,137.45 -0.14,-0.67 0.24,-0.66 0.6,-0.58 0.2,-0.12 0.69,-0.32 1.09,-0.24 1.17,-0.03 1.13,0.19 0.95,0.39 0.68,0.56 0.33,0.64 -0.06,0.7 -0.41,0.61 -0.76,0.51 -1,0.35 -1.15,0.14 -1.16,-0.08 -1.05,-0.3 -0.65,-0.37 -0.18,-0.11 -0.52,-0.61"
       id="path38"
       inkscape:connector-curvature="0"
       style="stroke:#000020;stroke-width:0.141" />
    <path
       d="m 76.23,144.45 v 5.13"
       id="path40"
       inkscape:connector-curvature="0"
       style="stroke:#000020;stroke-width:0.141" />
    <path
       d="m 79.19,145.16 h 5.41 v 5.13"
       id="path42"
       inkscape:connector-curvature="0"
       style="stroke:#000020;stroke-width:0.141" />
    <path
       d="m 83.01,131.22 0.83,0.48 1.05,0.3 1.16,0.08 1.15,-0.13 1,-0.35 0.76,-0.52 0.42,-0.62 0.05,-0.68 -0.33,-0.65 -0.68,-0.55 -0.95,-0.39 -1.13,-0.2 -1.17,0.03 -1.09,0.25 -0.69,0.31 -0.2,0.12 -0.6,0.58 -0.24,0.67 0.14,0.67 0.52,0.6"
       id="path44"
       inkscape:connector-curvature="0"
       style="stroke:#000020;stroke-width:0.141" />
    <path
       d="m 159.47,104.65 v -3.11 0.4 l -0.14,0.62 -0.42,0.59 -0.66,0.5 -70.68,40.8 -0.9,0.39 -0.98,0.24 -1.09,0.08"
       id="path46"
       inkscape:connector-curvature="0"
       style="stroke:#000020;stroke-width:0.141" />
    <path
       d="m 87.57,144.45 v 5.13"
       id="path48"
       inkscape:connector-curvature="0"
       style="stroke:#000020;stroke-width:0.141" />
    <path
       d="m 94.33,123.78 0.52,0.61 0.83,0.48 1.05,0.29 1.16,0.09 1.15,-0.14 1,-0.35 0.76,-0.51 0.42,-0.63 0.05,-0.68 -0.32,-0.63 -0.69,-0.57 -0.95,-0.39 -1.13,-0.19 -1.17,0.02 -1.09,0.25 -0.69,0.31 -0.2,0.13 -0.6,0.58 -0.24,0.66 0.14,0.67"
       id="path50"
       inkscape:connector-curvature="0"
       style="stroke:#000020;stroke-width:0.141" />
    <path
       d="m 106.17,116.95 0.52,0.6 0.78,0.46 1.1,0.32 1.16,0.08 1.15,-0.14 1,-0.34 0.76,-0.52 0.42,-0.62 0.06,-0.68 -0.34,-0.65 -0.68,-0.55 -0.95,-0.4 -1.13,-0.19 -1.17,0.03 -1.09,0.24 -0.69,0.32 -0.2,0.12 -0.6,0.58 -0.24,0.66 0.14,0.68"
       id="path52"
       inkscape:connector-curvature="0"
       style="stroke:#000020;stroke-width:0.141" />
    <path
       d="m 117.87,109.44 0.24,-0.66 0.6,-0.58 0.89,-0.44 1.09,-0.25 1.17,-0.02 1.13,0.19 0.95,0.39 0.68,0.55 0.34,0.65 -0.06,0.68 -0.42,0.63 -0.76,0.51 -1,0.35 -1.15,0.14 -1.16,-0.09 -1.05,-0.29 -0.65,-0.38 -0.18,-0.1 -0.52,-0.61 -0.14,-0.67"
       id="path54"
       inkscape:connector-curvature="0"
       style="stroke:#000020;stroke-width:0.141" />
    <path
       d="m 130.59,104.01 -0.22,-0.13 -0.52,-0.61 -0.14,-0.67 0.24,-0.66 0.6,-0.58 0.89,-0.44 1.09,-0.24 1.17,-0.03 1.13,0.19 0.95,0.39 0.68,0.56 0.34,0.64 -0.06,0.68 -0.42,0.63 -0.76,0.51 -1,0.35 -1.15,0.14 -1.16,-0.08 -1.05,-0.3 -0.61,-0.35"
       id="path56"
       inkscape:connector-curvature="0"
       style="stroke:#000020;stroke-width:0.141" />
    <path
       d="m 130.74,180 v 0.05"
       id="path58"
       inkscape:connector-curvature="0"
       style="stroke:#000020;stroke-width:0.141" />
    <path
       d="m 131.97,181.76 v -5.13 l -0.67,-0.5 -0.42,-0.58 -0.14,-0.63"
       id="path60"
       inkscape:connector-curvature="0"
       style="stroke:#000020;stroke-width:0.141" />
    <path
       d="M 130.74,174.75 V 171.8"
       id="path62"
       inkscape:connector-curvature="0"
       style="stroke:#000020;stroke-width:0.141" />
    <path
       d="m 131.97,176.63 16.53,9.55 v 5.12"
       id="path64"
       inkscape:connector-curvature="0"
       style="stroke:#000020;stroke-width:0.141" />
    <path
       d="m 132.11,20.83 4.44,2.56"
       id="path66"
       inkscape:connector-curvature="0"
       style="stroke:#000020;stroke-width:0.141" />
    <path
       d="m 138.11,21.98 -4.44,-2.56"
       id="path68"
       inkscape:connector-curvature="0"
       style="stroke:#000020;stroke-width:0.141" />
    <path
       d="m 142.01,178.85 -0.32,-0.38 -0.14,-0.67 0.24,-0.66 0.6,-0.58 0.2,-0.13 0.69,-0.31 1.09,-0.25 1.17,-0.02 1.13,0.19 0.95,0.39 0.68,0.55 0.34,0.65 -0.05,0.68 -0.43,0.63 -0.75,0.51 -1.01,0.35 -1.15,0.14 -1.16,-0.09 -1.05,-0.29 -0.83,-0.48 -0.2,-0.23"
       id="path70"
       inkscape:connector-curvature="0"
       style="stroke:#000020;stroke-width:0.141" />
    <path
       d="m 142.11,96.92 -0.42,-0.48 -0.14,-0.67 0.24,-0.67 0.6,-0.58 0.2,-0.12 0.69,-0.31 1.1,-0.25 1.16,-0.03 1.13,0.2 0.95,0.39 0.68,0.55 0.34,0.65 -0.05,0.67 -0.43,0.63 -0.76,0.52 -1,0.35 -1.15,0.13 -1.16,-0.08 -1.05,-0.3 -0.83,-0.48 -0.1,-0.12"
       id="path72"
       inkscape:connector-curvature="0"
       style="stroke:#000020;stroke-width:0.141" />
    <path
       d="m 237.3,69.97 -4.44,2.56 v 2.71 l 0.61,-0.48 0.32,-0.57 v -0.6 l -0.32,-0.57 -0.61,-0.49 -88.8,-51.27 4.44,-2.56"
       id="path74"
       inkscape:connector-curvature="0"
       style="stroke:#000020;stroke-width:0.141" />
    <path
       d="m 146.41,90.27 11.83,6.83 0.67,0.5 0.42,0.59 0.14,0.62 v 2.73 -0.25"
       id="path76"
       inkscape:connector-curvature="0"
       style="stroke:#000020;stroke-width:0.141" />
    <path
       d="m 240.05,73.27 v 1.24 l -0.47,1.21 -0.94,1.12 -1.34,0.97 -1.25,0.72 -4.44,-2.57 1.25,-0.72 4.44,2.57 v 62.22 l -82.01,47.35 v -0.36 l -4.44,-2.56 v 0.36 l -0.11,0.75 -0.34,0.59 -0.52,0.3 h -0.65 l -0.73,-0.28 2.35,-1.36 4.44,2.56 -0.17,1.65 -0.5,1.37 -0.81,1.02 -1.04,0.6"
       id="path78"
       inkscape:connector-curvature="0"
       style="stroke:#000020;stroke-width:0.141" />
    <path
       d="m 150.85,184.46 0.15,-1.82 0.45,-1.91 0.73,-1.94 0.99,-1.88 1.19,-1.75 4.44,2.57 -1.19,1.74 -0.99,1.88 -0.73,1.94 -0.45,1.91 -0.15,1.82"
       id="path80"
       inkscape:connector-curvature="0"
       style="stroke:#000020;stroke-width:0.141" />
    <path
       d="m 158.86,169.35 -0.35,-0.15 -1.13,-0.19 -1.16,0.03 -1.1,0.24 -0.69,0.32 -0.2,0.12 -0.6,0.58 -0.24,0.66 0.14,0.67 0.52,0.61 0.83,0.48 1.13,0.31 -1.65,2.13"
       id="path82"
       inkscape:connector-curvature="0"
       style="stroke:#000020;stroke-width:0.141" />
    <path
       d="m 153.81,191.42 82.01,-47.35"
       id="path84"
       inkscape:connector-curvature="0"
       style="stroke:#000020;stroke-width:0.141" />
    <path
       d="m 156.01,173.03 23.54,-30.42"
       id="path86"
       inkscape:connector-curvature="0"
       style="stroke:#000020;stroke-width:0.141" />
    <path
       d="m 165.56,68.67 -0.04,0.71 -0.33,1.16 -0.63,0.83 -0.88,0.44 -1.08,0.02 -1.18,-0.4 -1.21,-0.79 -1.14,-1.13 -0.98,-1.37 -0.77,-1.52 -0.48,-1.56 -0.16,-1.48 0.16,-1.27 0.48,-1.02 0.77,-0.64 0.98,-0.24 1.14,0.19 0.91,0.45"
       id="path88"
       inkscape:connector-curvature="0"
       style="stroke:#000020;stroke-width:0.141" />
    <path
       d="m 158.25,103.65 v 5.12"
       id="path90"
       inkscape:connector-curvature="0"
       style="stroke:#000020;stroke-width:0.141" />
    <path
       d="m 158.8,177.73 75.7,-97.79 0.74,-0.82 0.81,-0.59"
       id="path92"
       inkscape:connector-curvature="0"
       style="stroke:#000020;stroke-width:0.141" />
    <path
       d="m 159.47,107.06 v -3.21"
       id="path94"
       inkscape:connector-curvature="0"
       style="stroke:#000020;stroke-width:0.141" />
    <path
       d="m 159.47,102.69 v -0.75"
       id="path96"
       inkscape:connector-curvature="0"
       style="stroke:#000020;stroke-width:0.141" />
    <path
       d="m 159.47,99.53 v 0.7"
       id="path98"
       inkscape:connector-curvature="0"
       style="stroke:#000020;stroke-width:0.141" />
    <path
       d="m 166.25,84.91 0.69,0.93 0.63,0.54 0.18,0.16 0.82,0.39 0.76,0.06 0.61,-0.3 0.39,-0.6 0.14,-0.88 -0.14,-1.02 -0.39,-1.07 -0.61,-1 -0.76,-0.82 -0.83,-0.55 -0.8,-0.23 h -0.25 l -0.44,0.12 -0.51,0.46 -0.27,0.75 v 0.96 l 0.27,1.06 0.51,1.04"
       id="path100"
       inkscape:connector-curvature="0"
       style="stroke:#000020;stroke-width:0.141" />
    <path
       d="m 166.34,57.69 -0.09,-0.12 -0.5,-1.03 -0.28,-1.08 v -0.95 l 0.27,-0.75 0.51,-0.47 0.69,-0.12 0.8,0.23 0.83,0.56 0.76,0.82 0.61,1 0.39,1.07 0.14,1.02 -0.14,0.87 -0.39,0.61 -0.61,0.29 -0.76,-0.05 -0.83,-0.4 -0.8,-0.7 -0.6,-0.8"
       id="path102"
       inkscape:connector-curvature="0"
       style="stroke:#000020;stroke-width:0.141" />
    <path
       d="m 179.23,103.9 -0.04,0.72 -0.33,1.15 -0.63,0.83 -0.88,0.45 -1.07,0.02 -1.19,-0.4 -1.2,-0.79 -1.14,-1.13 -0.99,-1.37 -0.76,-1.53 -0.49,-1.56 -0.16,-1.47 0.16,-1.29 0.49,-1 0.76,-0.65 0.99,-0.23 1.14,0.19 0.9,0.45"
       id="path104"
       inkscape:connector-curvature="0"
       style="stroke:#000020;stroke-width:0.141" />
    <path
       d="m 202.96,102.06 -0.89,0.91 -1.72,1.06 -1.96,0.63 -2.14,0.2 -2.3,-0.26 -2.4,-0.69 -2.47,-1.13 -2.48,-1.53 -2.44,-1.9 -2.35,-2.25 -2.23,-2.54 -2.05,-2.78 -1.84,-2.98 -1.6,-3.11 -1.31,-3.19 -1.01,-3.19 -0.68,-3.15 -0.35,-3.03 v -2.86 l 0.35,-2.63 0.68,-2.36 1.01,-2.03 1.31,-1.67 1.6,-1.27 1.84,-0.85 0.78,-0.16"
       id="path106"
       inkscape:connector-curvature="0"
       style="stroke:#000020;stroke-width:0.141" />
    <path
       d="m 179.23,49.22 -0.04,0.71 -0.33,1.15 -0.64,0.84 -0.87,0.44 -1.07,0.02 -1.19,-0.4 -1.2,-0.79 -1.14,-1.13 -0.99,-1.37 -0.76,-1.53 -0.49,-1.55 -0.16,-1.48 0.16,-1.29 0.49,-1 0.76,-0.65 0.99,-0.23 1.14,0.19 0.9,0.45"
       id="path108"
       inkscape:connector-curvature="0"
       style="stroke:#000020;stroke-width:0.141" />
    <path
       d="m 186.06,53.94 -0.08,-0.31 v -0.96 l 0.27,-0.75 0.51,-0.46 0.69,-0.12 0.8,0.23 0.83,0.56 0.76,0.82 0.61,1 0.39,1.07 0.14,1.02 -0.11,0.68 -0.03,0.19 -0.39,0.61 -0.61,0.29 -0.76,-0.05 -0.83,-0.4 -0.8,-0.7 -0.69,-0.92 -0.51,-1.05 -0.19,-0.75"
       id="path110"
       inkscape:connector-curvature="0"
       style="stroke:#000020;stroke-width:0.141" />
    <path
       d="m 202.27,113.27 -6.24,8.06"
       id="path112"
       inkscape:connector-curvature="0"
       style="stroke:#000020;stroke-width:0.141" />
    <path
       d="m 198.55,118.07 -0.21,-0.43 -0.48,-1.56 -0.17,-1.48 0.17,-1.29 0.48,-1 0.76,-0.64 0.99,-0.24 1.14,0.19 0.91,0.46"
       id="path114"
       inkscape:connector-curvature="0"
       style="stroke:#000020;stroke-width:0.141" />
    <path
       d="m 206.57,65 -0.04,0.72 -0.32,1.15 -0.63,0.83 -0.89,0.44 -1.07,0.03 -1.18,-0.4 -1.21,-0.79 -1.14,-1.13 -0.99,-1.37 -0.76,-1.53 -0.48,-1.56 -0.17,-1.47 0.17,-1.29 0.48,-1.01 0.76,-0.64 0.99,-0.23 1.14,0.19 0.91,0.45"
       id="path116"
       inkscape:connector-curvature="0"
       style="stroke:#000020;stroke-width:0.141" />
    <path
       d="M 202.83,112.55 216.3,95.14"
       id="path118"
       inkscape:connector-curvature="0"
       style="stroke:#000020;stroke-width:0.141" />
    <path
       d="m 208.99,104.58 -0.23,-0.15 -0.8,-0.23 -0.7,0.12 -0.5,0.46 -0.27,0.75 v 0.96 l 0.25,1"
       id="path120"
       inkscape:connector-curvature="0"
       style="stroke:#000020;stroke-width:0.141" />
    <path
       d="m 206.61,79.62 0.15,0.58 0.5,1.05 0.7,0.92 0.8,0.7 0.83,0.4 0.64,0.07 0.1,-0.01 0.62,-0.3 0.4,-0.62 0.13,-0.85 -0.13,-1.03 -0.4,-1.07 -0.6,-1 -0.76,-0.82 -0.83,-0.56 -0.8,-0.23 -0.7,0.13 -0.5,0.46 -0.27,0.75 v 0.95 l 0.12,0.48"
       id="path122"
       inkscape:connector-curvature="0"
       style="stroke:#000020;stroke-width:0.141" />
    <path
       d="m 212.77,99.7 -0.76,-1.51 -0.48,-1.56 -0.17,-1.48 0.17,-1.29 0.48,-1 0.76,-0.64 0.99,-0.24 1.14,0.19 0.89,0.45"
       id="path124"
       inkscape:connector-curvature="0"
       style="stroke:#000020;stroke-width:0.141" />
    <path
       d="M 234.5,79.94 230.06,77.37 217.34,93.8"
       id="path126"
       inkscape:connector-curvature="0"
       style="stroke:#000020;stroke-width:0.141" />
    <path
       d="m 230.06,77.37 0.74,-0.81 0.81,-0.6"
       id="path128"
       inkscape:connector-curvature="0"
       style="stroke:#000020;stroke-width:0.141" />
    <path
       d="m 179.55,142.61 -47.58,27.48 -0.67,0.5 -0.42,0.58 -0.14,0.65 v 3.1 5.13 l 0.14,0.62 0.42,0.59 0.67,0.5 16.53,9.54 1.51,0.68 1.38,0.24 1.34,-0.18 83.09,-47.97 0.81,-1.02 0.5,-1.37 0.17,-1.65 1.34,-0.97 0.94,-1.11 0.47,-1.21 V 73.27 l -0.47,-1.22 -0.94,-1.11 -1.34,-0.97 -63.22,-36.51 -25.58,-14.76 -1.68,-0.78 -1.94,-0.54 -2.09,-0.27 h -2.16 l -2.09,0.27 -1.94,0.54 -1.68,0.78 -1.25,0.72 -0.81,0.59 -0.75,0.82 -75.69,97.79 -1.2,1.74 -0.98,1.88 -0.73,1.94 -0.45,1.91 -0.15,2.18 0.17,1.85 0.5,1.94 0.81,1.96 1.08,1.87 1.28,1.67 1.44,1.41 1.51,1.06 16.53,9.55 0.87,0.38 1.01,0.25 1.08,0.08 h 5.41 l 1.09,-0.08 0.98,-0.24 0.9,-0.39 70.68,-40.81 0.66,-0.5 0.42,-0.58 0.14,-0.63 0.01,-6.83 36.55,21.1"
       id="path132"
       inkscape:connector-curvature="0"
       style="stroke:#000020;stroke-width:0.176" />
    <path
       d="m 139.81,85.34 -0.33,-0.95 -0.12,-0.9 0.84,-0.35 0.99,-0.19 h 0.95 l 1.08,0.18 0.84,0.36 v 1.3 l 0.1,0.94 0.3,0.99 0.47,0.98 1.48,2.57 -4.7,-2.71 -0.72,-0.55 -0.41,-0.47 -0.25,-0.3 -0.52,-0.9"
       id="path134"
       inkscape:connector-curvature="0"
       style="stroke:#000020;stroke-width:0.176" />
    <path
       d="m 152.73,192.04 0.04,-0.02"
       id="path136"
       inkscape:connector-curvature="0"
       style="stroke:#000020;stroke-width:0.176" />
    <path
       d="m 161.79,64.1 -0.51,-1.61 -0.16,-1.44 0.3,0.15 1.18,0.97 1.08,1.26 0.88,1.46 0.63,1.56 0.33,1.53 0.04,0.69 -0.9,-0.59 -1.15,-1.13 -0.98,-1.37 -0.74,-1.48"
       id="path138"
       inkscape:connector-curvature="0"
       style="stroke:#000020;stroke-width:0.176" />
    <path
       d="m 175.42,99.23 0.78,1.58 0.99,1.38 1.14,1.12 0.9,0.59 -0.04,-0.68 -0.33,-1.53 -0.63,-1.56 -0.88,-1.46 -1.07,-1.26 -1.19,-0.97 -0.3,-0.15 0.16,1.44 0.47,1.5"
       id="path140"
       inkscape:connector-curvature="0"
       style="stroke:#000020;stroke-width:0.176" />
    <path
       d="m 175.58,73.85 -0.4,-3.28 v -2.86 l 0.35,-2.64 0.68,-2.35 1.01,-2.04 1.09,-1.38 1.27,-0.26 2.23,0.03 2.35,0.48 2.44,0.91 2.48,1.33 2.47,1.72 2.4,2.08 2.3,2.4 2.14,2.67 1.96,2.89 1.72,3.05 1.45,3.16 1.17,3.19 0.84,3.18 0.52,3.1 0.17,2.95 -0.17,2.76 -0.52,2.5 -0.84,2.2 -1.17,1.85 -0.56,0.57 -0.13,0.04 -2.14,0.19 -2.3,-0.25 -2.4,-0.7 -2.47,-1.12 -2.48,-1.53 -2.44,-1.91 -2.35,-2.24 -2.23,-2.54 -2.05,-2.79 -1.84,-2.97 -1.6,-3.12 -1.31,-3.18 -1.01,-3.2 -0.63,-2.89"
       id="path142"
       inkscape:connector-curvature="0"
       style="stroke:#000020;stroke-width:0.176" />
    <path
       d="m 175.66,45.04 -0.22,-0.44 -0.49,-1.56 -0.16,-1.44 0.3,0.15 1.19,0.97 1.07,1.26 0.88,1.46 0.63,1.56 0.33,1.53 0.04,0.69 -0.9,-0.59 -1.14,-1.13 -0.99,-1.38 -0.54,-1.08"
       id="path144"
       inkscape:connector-curvature="0"
       style="stroke:#000020;stroke-width:0.176" />
    <path
       d="m 196.03,121.33 -16.48,21.28"
       id="path146"
       inkscape:connector-curvature="0"
       style="stroke:#000020;stroke-width:0.176" />
    <path
       d="m 202.83,112.55 -0.39,-0.32 -0.3,-0.15 0.13,1.19"
       id="path148"
       inkscape:connector-curvature="0"
       style="stroke:#000020;stroke-width:0.176" />
    <path
       d="m 202.24,58.29 -0.1,-0.9 0.3,0.15 1.18,0.97 1.07,1.26 0.89,1.46 0.63,1.56 0.32,1.53 0.04,0.68 -0.9,-0.59 -1.12,-1.1 -1.01,-1.4 -0.76,-1.52 -0.48,-1.54 -0.06,-0.56"
       id="path150"
       inkscape:connector-curvature="0"
       style="stroke:#000020;stroke-width:0.176" />
    <path
       d="m 202.27,113.27 0.56,-0.72"
       id="path152"
       inkscape:connector-curvature="0"
       style="stroke:#000020;stroke-width:0.176" />
    <path
       d="m 216.3,95.14 -0.33,-1.07 -0.16,-1.44 0.3,0.14 1.23,1.03 -1.04,1.34"
       id="path154"
       inkscape:connector-curvature="0"
       style="stroke:#000020;stroke-width:0.176" />
  </g>
</svg>
