<?xml version="1.0" encoding="UTF-8" standalone="no"?>
<svg
   xmlns:dc="http://purl.org/dc/elements/1.1/"
   xmlns:cc="http://creativecommons.org/ns#"
   xmlns:rdf="http://www.w3.org/1999/02/22-rdf-syntax-ns#"
   xmlns:svg="http://www.w3.org/2000/svg"
   xmlns="http://www.w3.org/2000/svg"
   xmlns:sodipodi="http://sodipodi.sourceforge.net/DTD/sodipodi-0.dtd"
   xmlns:inkscape="http://www.inkscape.org/namespaces/inkscape"
   inkscape:version="1.0 (4035a4fb49, 2020-05-01)"
   sodipodi:docname="UP-2cart_Input Mounting Screws.svg"
   id="svg993"
   version="1.1"
   fill-rule="evenodd"
   fill="none"
   stroke-linecap="round"
   stroke-linejoin="round"
   viewBox="0 0 264.58334 158.75"
   height="600"
   width="1000">
  <metadata
     id="metadata997">
    <rdf:RDF>
      <cc:Work
         rdf:about="">
        <dc:format>image/svg+xml</dc:format>
        <dc:type
           rdf:resource="http://purl.org/dc/dcmitype/StillImage" />
        <dc:title></dc:title>
      </cc:Work>
    </rdf:RDF>
  </metadata>
  <sodipodi:namedview
     inkscape:current-layer="svg993"
     inkscape:window-maximized="1"
     inkscape:window-y="-8"
     inkscape:window-x="1072"
     inkscape:cy="396.85039"
     inkscape:cx="561.25984"
     inkscape:zoom="0.93450477"
     units="px"
     showgrid="false"
     id="namedview995"
     inkscape:window-height="1017"
     inkscape:window-width="1920"
     inkscape:pageshadow="2"
     inkscape:pageopacity="0"
     guidetolerance="10"
     gridtolerance="10"
     objecttolerance="10"
     borderopacity="1"
     bordercolor="#666666"
     pagecolor="#ffffff" />
  <desc
     id="desc2">Composer Export</desc>
  <script
     id="script4"
     type="text/ecmascript"><![CDATA[
if(typeof(top) != "undefined")
{
	top.ShowPaper = ShowPaper;
}
function ShowHotSpot(evt,hotspotid)
{
	var svgDocument = evt.target.ownerDocument;
	var strId = "hotspot."+hotspotid;
	var hotspot = svgDocument.getElementById(strId);
	if(hotspot)
		hotspot.setAttribute("opacity",".5");
}
function HideHotSpot(evt,hotspotid)
{
	var svgDocument = evt.target.ownerDocument;
	var strId = "hotspot."+hotspotid;
	var hotspot = svgDocument.getElementById(strId);
	if(hotspot)
		hotspot.setAttribute("opacity","0");

	var toolTip = svgDocument.getElementById('ToolTip');
	if(toolTip)
		toolTip.setAttribute("visibility","hidden");
}
function ShowToolTip(evt,hotspotid,strTooltip)
{
	if(strTooltip=="")
	return;

	// change text
	var svgDocument = evt.target.ownerDocument;
	var tiptext = svgDocument.getElementById('ToolTipText');
	if( !tiptext )
	return;
	tiptext.firstChild.nodeValue = " " + strTooltip + "  " ;

	// show tooltip before, else some refresh issue

	var toolTip = svgDocument.getElementById('ToolTip');
	if(!toolTip)
	return;

	toolTip.setAttribute("visibility","visible");
	toolTip.setAttribute("opacity",".95");

	// move tooltip
	// get viewbox

	var root = svgDocument.documentElement;
	var vbox = (root.getAttribute("viewBox")).split(' ');
	var x0 = parseFloat(vbox[0]);
	var y0 = parseFloat(vbox[1]);
	var vboxW = parseFloat(vbox[2]);
	var vboxH = parseFloat(vbox[3]);

	// get default width of svg

	var strW = root.getAttribute("width");
	var svgW = parseFloat(strW);
	if(strW.indexOf('mm') != -1)
	svgW *= 3.779;

	var strH = root.getAttribute("height");
	var svgH = parseFloat(strH);
	if(strH.indexOf('mm') != -1)
	svgH *= 3.779;  	// 96 dpi  -> 96/25.4 = 3.779

	// update the viewbox / width / height if svg is embedded in html with zoom fit all
	var realx0 = x0;
	var realy0 = y0;
	var realvboxW = vboxW;
	var realvboxH = vboxH;
	var realsvgW = svgW;
	var realsvgH = svgH;

	if ((typeof(top) == "undefined") || (typeof(top.svgctl1) != "undefined")) // embedded in html
	{
		// get window size in pxl

		svgW = window.innerWidth;
		svgH = window.innerHeight;

		// calculate real viewbox

		realsvgW = svgW;
		realsvgH = svgH;
		if((svgW / svgH) > (vboxW / vboxH))
		{
			realvboxW = (vboxH * svgW) / svgH;
			realvboxH = vboxH;
			realx0 = x0 - (realvboxW - vboxW)/2 ;
		}
		else
		{
			realvboxH = (vboxW * svgH) / svgW;
			realvboxW = vboxW;
			realy0 = y0 - (realvboxH - vboxH)/2 ;
		}
	}

	// get user zoom/pan

	var newScale = root.currentScale;
	var translation = root.currentTranslate;

	// transform pxl to user unit

	var xPos = (((evt.clientX+10- translation.x)/newScale) * realvboxW)/realsvgW  + realx0 ;
	var yPos = (((evt.clientY+5- translation.y)/newScale) * realvboxH)/ realsvgH  + realy0 ;
	var scaleForWidth = ( (1 / newScale) * realvboxH) / realsvgH;

	// move tooltip

	toolTip.setAttribute("transform", "translate(" + xPos + "," + yPos + ")" );

	// resize tooltip

	var fontsize = 12;
	tiptext.setAttribute("font-size",fontsize*scaleForWidth);
	tiptext.setAttribute("y", fontsize*scaleForWidth);
	var tipBG = svgDocument.getElementById('ToolTipBG');
	var outline = tiptext.getBBox();
	if(tipBG)
	{
		tipBG.setAttribute("stroke-width", 1*scaleForWidth);
		tipBG.setAttribute("width", Number(outline.width) );
		tipBG.setAttribute("height", Number(outline.height) + fontsize*.5*scaleForWidth );
	}
	var ToolTipShadow = svgDocument.getElementById('ToolTipShadow');
	if(ToolTipShadow)
	{
		ToolTipShadow.setAttribute("width", Number(outline.width) );
		ToolTipShadow.setAttribute("height", Number(outline.height) + fontsize*.5*scaleForWidth );
		ToolTipShadow.setAttribute("x", 3*scaleForWidth);
		ToolTipShadow.setAttribute("y", 3*scaleForWidth);
	}
}
function ShowPaper()
{
  var svgDocument = getDocument();
  var paper = svgDocument.getElementById("paperID");
  if(paper)
  {
    paper.setAttribute("transform","scale(1)");
    paper.setAttribute("opacity","1");
    paper.setAttribute("visibility","visible");
  }
  var svg = svgDocument.getRootElement();
  if(svg)
  {
    svg.setAttribute("width","307.000mm");
    svg.setAttribute("height","220.000mm");
    svg.setAttribute("viewBox","-5.000000 -5.000000 307.000000 220.000000");
  }
}
]]></script>
  <defs
     id="defs6" />
  <g
     transform="matrix(1.4250542,0,0,1.4250542,-83.796425,-66.721556)"
     id="g1986">
    <path
       id="path10"
       d="m 119.09,90.08 1.7,0.1 0.8,-0.07 1.05,0.14 8.97,0.43 0.62,0.09 0.68,0.66 16.39,22.81 1.34,2.03 0.01,1.47 -1.52,17.91 -0.09,1.02 -0.33,3.9 -0.34,0.54 -4.54,2.72 -3.46,-0.02 -0.53,-0.35 -0.18,-0.16 -10.6,-0.51 -1.8,0.01 -0.55,0.33 h -1.37 l -1.92,-0.14 -0.82,-0.7 -2.38,-3.35 -0.15,-0.4 v -1.66 l -10.68,-14.85 -0.07,-0.24 0.43,-0.11 h -0.37 l -0.06,0.11 -0.37,0.05 h -0.5 l -0.89,-0.5 -2.55,-3.69 -0.15,-0.57 0.01,-0.52 0.31,-3.28 0.29,-0.38 0.4,-0.27 0.17,-0.34 1.1,-12.95 0.09,-1.32 -0.53,-0.82 -0.06,-1.58 0.25,-2.54 0.33,-0.55 4.77,-2.7 h 1.71 z"
       style="fill:#4d4d4d" />
    <path
       id="path12"
       d="m 124.96,114.32 0.79,-0.42 0.42,0.15 0.31,0.89 -0.03,0.86 0.15,0.21 0.89,-0.25 0.52,0.34 -0.01,0.75 -0.34,0.39 -0.22,0.03 0.01,0.2 0.26,0.24 0.2,0.22 0.04,0.1 0.44,0.02 0.3,0.09 0.51,0.51 v 0.4 l -0.88,0.51 v 0.26 l 0.52,0.35 0.6,0.8 -0.03,0.46 -0.8,0.57 0.24,0.53 0.01,0.58 -3.68,2.12 -3.65,2.05 -0.62,-0.02 -0.53,-0.68 -1.18,0.38 -0.33,-0.52 -0.14,-0.25 -0.02,-0.8 -0.07,-0.07 -0.11,-0.28 h -0.21 l -0.69,0.39 -0.26,-0.02 -0.31,-0.25 -0.02,-0.82 0.16,-0.25 0.01,-0.38 -0.2,-0.33 -1.02,-0.16 -0.33,-0.19 -0.02,-0.63 0.56,-0.48 -0.01,-0.4 -0.7,-0.5 -0.65,-0.58 0.04,-0.46 0.79,-0.45 0.02,-0.19 -0.76,-1.22 0.73,-0.58 0.24,-0.15 0.17,-0.48 -0.02,-0.15 3.08,-1.89 3.07,-1.82 0.4,0.18 0.62,0.03 0.44,-0.27 0.51,-0.01 0.14,0.07 z"
       style="fill:#c0c0c0" />
    <path
       id="path14"
       d="m 180.36,59.35 2.71,0.85 2.53,1.18 3.21,2.2 1.69,1.35 2.38,2.35 1.86,2.02 1.86,2.37 3.04,4.72 1.84,3.91 1.69,4.39 0.94,3.83 0.09,0.5 0.08,0.52 0.1,0.5 0.24,2.19 0.09,1.03 v 1.34 l -0.19,2.48 -0.49,2.54 -0.74,1.8 -0.85,1.69 -1.11,1.42 -1.25,0.95 -5.63,3.29 -6.99,4.02 -0.73,0.62 -0.95,1.08 -1.34,1.02 -34.47,19.94 -0.77,0.37 -0.07,-0.17 1.52,-17.91 -0.01,-1.47 -1.34,-2.03 -16.39,-22.81 -0.68,-0.66 -0.62,-0.09 -8.97,-0.43 -1.05,-0.14 -0.8,0.07 -0.32,-0.18 0.69,-0.6 4.41,-2.68 31.93,-18.41 1.8,-0.61 1.63,-0.36 7.31,-4.21 1.5,-0.83 4.82,-2.78 1.36,-0.34 3.6,0.01 z"
       style="fill:#e8e8e8" />
    <path
       id="path16"
       d="m 123.48,109.95 1.31,0.59 2.04,1.33 1.86,2.03 1.01,1.52 1.17,2.38 0.77,2.47 0.09,0.69 0.08,0.66 -0.01,0.69 -0.09,1.12 -0.5,1.53 -0.92,1.28 -0.99,0.35 h -1.14 l -1.35,-0.33 -1.36,-0.67 -0.27,-0.36 3.68,-2.12 -0.01,-0.58 -0.24,-0.53 0.8,-0.57 0.18,-0.29 -0.15,-0.17 -0.6,-0.8 -0.52,-0.35 v -0.26 l 0.88,-0.51 v -0.4 l -0.51,-0.51 -0.3,-0.09 -0.48,-0.12 -0.2,-0.22 -0.05,-0.47 0.34,-0.39 0.01,-0.75 -0.52,-0.34 -0.89,0.25 -0.15,-0.21 0.03,-0.86 -0.31,-0.89 -0.42,-0.15 -0.79,0.42 -0.65,-1.27 -0.14,-0.07 -0.07,-0.09 -0.44,0.1 -0.44,0.27 -0.62,-0.03 -0.4,-0.18 -3.07,1.82 0.07,-2.26 0.71,-1.66 0.42,-0.58 0.51,-0.34 1.97,-0.19 z"
       style="fill:#e8e8e8" />
    <path
       id="path18"
       d="m 94.62,114.21 0.09,0.39 0.39,0.09 0.12,0.08 0.23,0.57 -0.08,0.06 0.21,0.66 -0.01,0.96 -0.29,0.41 -0.22,-0.14 -0.08,0.28 -0.08,0.13 -0.78,0.36 -0.08,-0.25 -0.12,0.41 -3.84,2.27 -1,0.52 -0.03,0.26 0.02,1.39 -0.1,0.28 -0.49,0.68 -0.62,0.42 -0.68,0.09 -0.68,-0.1 -0.75,-0.14 -1.67,-1.03 -0.86,-1.17 -0.34,-0.84 -0.14,-0.73 v -1.2 l 0.14,-0.9 0.7,-1.17 0.6,-0.4 1.42,-0.01 1.17,0.71 0.4,-0.1 0.78,-0.08 -0.26,-0.2 0.16,-0.07 0.45,-0.09 -0.09,-0.17 0.99,-0.58 0.78,-0.07 -0.27,-0.2 0.16,-0.07 0.44,-0.09 -0.09,-0.08 1.01,-0.67 0.77,-0.08 -0.25,-0.19 1.04,-0.67 h 1.09 z"
       style="fill:#e8e8e8" />
    <path
       id="path20"
       d="m 115.86,143.62 0.66,1.03 -0.01,1.75 -0.13,0.09 -0.26,0.04 -0.05,0.25 -0.07,0.15 -0.74,0.38 -0.11,-0.46 -0.11,0.6 -3.75,2.19 -0.99,0.56 -0.27,0.03 0.07,0.63 0.01,0.68 -0.1,0.5 -0.26,0.62 -0.74,0.61 -0.84,0.19 -1.13,-0.17 -1.67,-0.87 -1.2,-1.5 -0.31,-0.91 -0.02,-0.44 -0.08,-0.06 v -1.36 l 0.24,-1.07 0.61,-0.92 0.79,-0.41 h 1.04 l 0.78,0.26 0.57,0.48 0.12,0.22 0.16,0.03 0.01,-0.26 0.38,-0.23 0.45,-0.07 -0.1,-0.18 0.15,-0.07 0.4,-0.08 0.07,-0.24 1.06,-0.53 0.45,-0.08 -0.11,-0.2 1.69,-0.9 0.45,-0.09 -0.11,-0.19 1.01,-0.56 0.5,-0.11 0.29,0.02 z"
       style="fill:#e8e8e8" />
    <path
       id="path22"
       d="m 203.52,52.92 1.34,1.7 1.2,1.34 1.54,1.34 -0.09,0.2 0.19,0.05 0.11,-0.11 0.16,-0.04 h 0.67 l 3.84,3.8 2.19,2.53 2.71,3.38 0.49,1.02 v 0.91 l -1.01,3.72 -4.81,5.85 1.18,4.51 0.1,0.49 0.07,0.36 0.09,0.49 0.08,0.52 0.09,0.5 0.08,0.51 0.09,0.68 0.08,0.83 0.08,1.54 0.12,0.46 0.4,-0.17 2.16,-1.2 0.03,-0.11 -0.02,-0.63 -0.08,-0.06 0.01,-0.45 0.12,-0.09 h 0.69 l 0.34,0.08 0.92,0.05 0.1,-0.11 0.16,-0.29 -0.13,-0.19 -0.09,-0.69 0.18,-0.34 0.51,0.55 1.1,1.64 -0.01,1.21 -0.09,0.29 -3.37,3.71 -2.87,3.56 -2.89,3.86 -1.34,1.37 -1.27,1.09 -8.88,5.31 -2.63,0.78 -2.71,0.1 5.63,-3.29 1.25,-0.95 1.11,-1.42 0.85,-1.69 0.74,-1.8 0.49,-2.54 0.19,-2.48 v -1.34 l -0.03,-0.97 -0.06,-0.06 -0.24,-2.19 -0.03,-0.44 -0.07,-0.06 -0.08,-0.52 -0.02,-0.44 -0.07,-0.06 -0.94,-3.83 -1.69,-4.39 -1.84,-3.91 -3.04,-4.72 -1.86,-2.37 -1.86,-2.02 -2.38,-2.35 -1.69,-1.35 -3.21,-2.2 -2.53,-1.18 -2.71,-0.85 -0.84,-0.16 -3.6,-0.01 -1.36,0.34 -4.82,2.78 -1.5,0.83 0.73,-1.43 1.54,-1.84 1.74,-1.3 9.07,-4.95 1.64,-0.43 1.01,-0.18 8.78,-0.5 3.54,-0.34 2.54,-0.34 1.19,-0.16 0.84,-0.18 h 0.69 l 0.28,0.1 z"
       style="fill:#404040" />
    <path
       id="path24"
       d="m 208.64,57.4 h -0.67 l 0.61,-0.08 z"
       style="fill:#000020" />
    <path
       id="path26"
       d="m 207.81,57.44 -0.11,0.11 -0.19,-0.05 0.09,-0.2 z"
       style="fill:#000020" />
    <path
       id="path28"
       d="m 213.33,83.61 -0.1,-0.49 0.08,0.06 z"
       style="fill:#000020" />
    <path
       id="path30"
       d="m 213.49,84.46 -0.09,-0.49 0.08,0.05 z"
       style="fill:#000020" />
    <path
       id="path32"
       d="m 218.9,85.3 -0.18,0.34 0.01,-0.64 z"
       style="fill:#000020" />
    <path
       id="path34"
       d="m 213.66,85.48 -0.09,-0.5 0.08,0.05 z"
       style="fill:#000020" />
    <path
       id="path36"
       d="m 213.83,86.67 -0.09,-0.68 0.07,0.05 z"
       style="fill:#000020" />
    <path
       id="path38"
       d="m 218.94,86.52 -0.16,0.29 0.03,-0.48 z"
       style="fill:#000020" />
    <path
       id="path40"
       d="m 217.42,86.79 h -0.69 l 0.63,-0.07 z"
       style="fill:#000020" />
    <path
       id="path42"
       d="m 216.7,88.02 -0.1,-0.69 0.08,0.06 z"
       style="fill:#000020" />
    <path
       id="path44"
       d="m 220.5,88.7 0.01,-1.21 0.06,0.07 z"
       style="fill:#000020" />
    <path
       id="path46"
       d="m 213.99,89.04 -0.08,-1.54 0.07,0.06 z"
       style="fill:#000020" />
    <path
       id="path48"
       d="m 204.2,89.02 -0.09,-0.5 0.07,0.06 z"
       style="fill:#000020" />
    <path
       id="path50"
       d="m 204.38,90.04 -0.1,-0.5 0.07,0.06 z"
       style="fill:#000020" />
    <path
       id="path52"
       d="m 120.79,90.18 -1.7,-0.1 1.38,-0.08 z"
       style="fill:#000020" />
    <path
       id="path54"
       d="m 204.71,93.26 -0.09,-1.03 0.06,0.06 z"
       style="fill:#000020" />
    <path
       id="path56"
       d="m 124.17,112.98 -0.51,0.01 0.44,-0.1 z"
       style="fill:#000020" />
    <path
       id="path58"
       d="m 95.1,114.69 -0.39,-0.09 -0.09,-0.39 z"
       style="fill:#000020" />
    <path
       id="path60"
       d="m 92,114.6 -0.77,0.08 0.52,-0.27 z"
       style="fill:#000020" />
    <path
       id="path62"
       d="m 95.37,115.4 0.08,-0.06 0.13,0.72 z"
       style="fill:#000020" />
    <path
       id="path64"
       d="m 89.87,115.52 0.35,-0.17 0.09,0.08 z"
       style="fill:#000020" />
    <path
       id="path66"
       d="m 89.98,115.79 -0.78,0.07 0.51,-0.27 z"
       style="fill:#000020" />
    <path
       id="path68"
       d="m 88.3,116.61 -0.45,0.09 0.21,-0.25 0.15,-0.01 z"
       style="fill:#000020" />
    <path
       id="path70"
       d="m 87.95,116.97 -0.78,0.08 0.52,-0.28 z"
       style="fill:#000020" />
    <path
       id="path72"
       d="m 127.44,117.27 0.22,-0.03 0.05,0.47 -0.26,-0.24 z"
       style="fill:#000020" />
    <path
       id="path74"
       d="m 116.07,116.91 -0.17,0.48 0.05,-0.6 0.1,-0.03 z"
       style="fill:#000020" />
    <path
       id="path76"
       d="m 95.28,117.43 -0.3,0.14 0.08,-0.28 z"
       style="fill:#000020" />
    <path
       id="path78"
       d="m 128.39,118.05 -0.44,-0.02 -0.04,-0.1 z"
       style="fill:#000020" />
    <path
       id="path80"
       d="m 94.12,118.06 -0.2,0.16 0.12,-0.41 z"
       style="fill:#000020" />
    <path
       id="path82"
       d="m 88.31,118.64 h -0.36 l -0.05,-0.18 h 0.23 z"
       style="fill:#000020" />
    <path
       id="path84"
       d="m 88.79,119.71 -0.22,-0.06 0.25,-0.14 z"
       style="fill:#000020" />
    <path
       id="path86"
       d="m 114.84,120.44 -0.08,-0.42 0.12,-0.04 z"
       style="fill:#000020" />
    <path
       id="path88"
       d="m 131.73,120.96 -0.09,-0.69 0.07,0.06 z"
       style="fill:#000020" />
    <path
       id="path90"
       d="m 129.59,121.14 -0.18,0.29 0.03,-0.46 z"
       style="fill:#000020" />
    <path
       id="path92"
       d="m 109.32,121.79 0.06,-0.11 h 0.37 z"
       style="fill:#000020" />
    <path
       id="path94"
       d="m 131.8,122.31 0.01,-0.69 0.07,0.07 z"
       style="fill:#000020" />
    <path
       id="path96"
       d="m 89.07,122.66 -0.02,-1.39 0.07,0.07 z"
       style="fill:#000020" />
    <path
       id="path98"
       d="m 117.06,125.16 -0.09,-0.04 0.07,-0.78 z"
       style="fill:#000020" />
    <path
       id="path100"
       d="m 118.73,126.19 -0.09,-0.87 0.07,0.07 z"
       style="fill:#000020" />
    <path
       id="path102"
       d="m 149.2,135.82 -0.16,0.85 0.09,-1.02 z"
       style="fill:#000020" />
    <path
       id="path104"
       d="m 112.97,143.81 -0.45,0.09 0.34,-0.28 z"
       style="fill:#000020" />
    <path
       id="path106"
       d="m 110.94,145 -0.45,0.08 0.34,-0.28 z"
       style="fill:#000020" />
    <path
       id="path108"
       d="m 109.36,145.85 -0.4,0.08 0.22,-0.27 0.25,-0.05 z"
       style="fill:#000020" />
    <path
       id="path110"
       d="m 108.91,146.18 -0.45,0.07 0.2,-0.23 0.15,-0.02 z"
       style="fill:#000020" />
    <path
       id="path112"
       d="m 107.79,146.49 0.29,-0.01 -0.01,0.26 -0.16,-0.03 z"
       style="fill:#000020" />
    <path
       id="path114"
       d="m 116.07,146.78 0.05,-0.25 0.26,-0.04 z"
       style="fill:#000020" />
    <path
       id="path116"
       d="m 115.26,147.31 -0.22,0.14 0.11,-0.6 z"
       style="fill:#000020" />
    <path
       id="path118"
       d="m 110.08,149.78 -0.22,-0.06 0.25,-0.14 z"
       style="fill:#000020" />
    <path
       id="path120"
       d="m 103.86,150.01 -0.1,-0.5 0.08,0.06 z"
       style="fill:#000020" />
    <path
       id="path122"
       d="m 110.1,150.86 -0.07,-0.63 0.27,-0.03 z"
       style="fill:#000020" />
    <g
       id="Actor_.0">
      <g
         id="g310"
         style="stroke:#000020;stroke-width:0.141">
        <path
           id="path124"
           d="m 195.07,108.43 1.23,-0.05 2.07,-0.54 1.84,-0.95 1.61,-1.35 1.33,-1.74 1.04,-2.08 0.73,-2.4 0.4,-2.67 0.07,-2.9 -0.27,-3.07 -0.59,-3.2 -0.79,-2.85 -0.12,-0.42 -1.21,-3.28 -1.49,-3.24 -1.75,-3.15 -1.97,-2.99 -2.17,-2.79 -2.33,-2.54 -2.43,-2.25 -2.52,-1.91 -2.54,-1.55 -2.53,-1.16 -2.48,-0.75 -2.37,-0.32 -2.24,0.1 -2.06,0.54 -1.85,0.95 -1.61,1.36 -1.33,1.73 -0.02,0.04" />
        <path
           id="path126"
           d="m 174.53,59.61 1.51,-0.35 1.6,-0.12 1.71,0.12 1.57,0.32 -1.65,-0.33 -1.48,-0.11 -0.21,-0.01 -1.6,0.12 -1.51,0.34 -1.4,0.58 -1.28,0.8 -0.83,0.74" />
        <path
           id="path128"
           d="m 171.83,58.97 1.89,-0.97 2.07,-0.54 0.05,-0.01 2.29,-0.11 2.44,0.33 2.54,0.77 2.6,1.19 2.6,1.59 2.58,1.96 2.5,2.3 2.38,2.61 2.23,2.86 2.02,3.07 1.8,3.22 1.53,3.33 1.24,3.36 0.93,3.36 0.05,0.25 0.56,3.03 0.27,3.15 -0.07,2.97 -0.42,2.74 -0.74,2.46 -1.06,2.13 -0.18,0.24 -1.19,1.54 -1.65,1.39" />
        <path
           id="path130"
           d="m 173.19,60.16 -0.02,0.01 1.38,-0.57" />
        <path
           id="path132"
           d="m 173.43,58.15 6.44,-3.62" />
        <path
           id="path134"
           d="m 180.58,54.14 -0.13,0.07" />
        <path
           id="path136"
           d="m 181.02,59.6 0.94,0.31 -0.92,-0.3 -0.12,-0.03 0.1,0.02" />
        <path
           id="path138"
           d="m 182.46,53.43 -0.92,0.29 -0.25,0.11" />
        <path
           id="path140"
           d="m 182.82,60.18 0.19,0.08 -0.17,-0.07 -0.88,-0.28 0.86,0.27" />
        <path
           id="path142"
           d="m 209.47,72.8 -0.74,-1.36 -0.38,-0.66 -0.57,-0.98 -1.02,-1.6 -1.18,-1.71 -0.98,-1.3 -1.16,-1.44 -1.19,-1.35 -1.2,-1.26 -1.22,-1.17 -1.28,-1.13 -1.27,-1.02 -1.14,-0.83 -1.46,-0.96 -1.27,-0.73 -1.3,-0.65 -1.21,-0.51 -1.08,-0.37 -0.55,-0.15 -0.76,-0.2 -0.38,-0.08 -0.9,-0.15 -0.25,-0.03 -1.14,-0.1 -1.03,0.01 -1.14,0.1 -1.12,0.23" />
        <path
           id="path144"
           d="m 184.02,60.7 -1.01,-0.44 1.05,0.46 -0.04,-0.02" />
        <path
           id="path146"
           d="m 184.65,60.98 0.45,0.25 -0.44,-0.24 -0.6,-0.27 0.59,0.26" />
        <path
           id="path148"
           d="m 185.1,61.23 1.05,0.58 -1.05,-0.58" />
        <path
           id="path150"
           d="m 186.49,62 -0.34,-0.19 0.34,0.18 0.7,0.48 -0.62,-0.42" />
        <path
           id="path152"
           d="m 187.19,62.47 1.14,0.75 1.81,1.42 0.19,0.17 -0.19,-0.18 -0.85,-0.66" />
        <path
           id="path154"
           d="m 188.98,63.73 -0.74,-0.57" />
        <path
           id="path156"
           d="m 190.66,65.11 -0.33,-0.3 1.05,0.94 -0.72,-0.64" />
        <path
           id="path158"
           d="m 191.38,65.75 0.54,0.49 0.5,0.52 -0.5,-0.52 -0.46,-0.42" />
        <path
           id="path160"
           d="m 191.34,54.02 -0.43,0.11 0.47,-0.12 -0.28,0.07" />
        <path
           id="path162"
           d="m 190.91,54.13 -0.06,0.03" />
        <path
           id="path164"
           d="m 201.37,51.59 -9.99,2.42 4.72,-1.19" />
        <path
           id="path166"
           d="m 192.53,66.87 0.94,0.96 -1.05,-1.07 0.11,0.11" />
        <path
           id="path168"
           d="m 193.38,52.6 1.44,-0.15" />
        <path
           id="path170"
           d="m 194.46,68.96 0.05,0.07 -0.96,-1.12 0.91,1.05" />
        <path
           id="path172"
           d="m 195.28,69.91 -0.77,-0.88 0.77,0.88 0.28,0.38 -0.21,-0.29" />
        <path
           id="path174"
           d="m 193.55,67.91 -0.08,-0.08" />
        <path
           id="path176"
           d="m 196.61,71.66 -0.47,-0.62 0.69,0.91 1.45,2.15 0.42,0.71 -0.37,-0.63" />
        <path
           id="path178"
           d="m 196.14,71.04 -0.58,-0.75" />
        <path
           id="path180"
           d="m 203.11,102.08 0.67,-1.6 0.06,-0.18 -0.06,0.2 -0.67,1.6 -0.16,0.29 -0.67,1.12 -0.99,1.23 -1.11,0.99 -0.22,0.15 -1.01,0.64 -0.24,0.11 -1.11,0.46 -0.38,0.1" />
        <path
           id="path182"
           d="m 197.65,73.17 0.63,0.93" />
        <path
           id="path184"
           d="m 196.92,72.09 0.71,1.04" />
        <path
           id="path186"
           d="m 197.32,52.19 0.22,-0.02" />
        <path
           id="path188"
           d="m 198.33,56.05 -0.14,-0.13 0.02,0.02" />
        <path
           id="path190"
           d="m 198.15,55.88 0.04,0.04 -0.03,-0.03" />
        <path
           id="path192"
           d="m 198.23,55.95 0.01,0.01" />
        <path
           id="path194"
           d="m 198.46,56.14 -0.01,0.01 -0.15,-0.13 -0.24,-0.28 0.01,0.01" />
        <path
           id="path196"
           d="m 198.18,55.88 -0.01,-0.01 v 0" />
        <path
           id="path198"
           d="m 198.18,55.84 0.01,0.06" />
        <path
           id="path200"
           d="m 198.5,56.12 -0.05,0.03 0.49,-0.32" />
        <path
           id="path202"
           d="m 203.1,58.08 -1.12,-0.14 -0.59,-0.11 -0.59,-0.13 -0.14,-0.04 -0.37,-0.18 -0.62,-0.4 -0.59,-0.42 -0.53,-0.42 -0.1,-0.09" />
        <path
           id="path204"
           d="m 200.12,51.76 -1.76,0.34" />
        <path
           id="path206"
           d="m 203.12,102.06 -0.82,1.4 -0.99,1.22 -1.08,0.97 -1.23,0.78" />
        <path
           id="path208"
           d="m 199.57,76.27 -0.62,-1.05 0.66,1.12 1.18,2.28 -1.05,-2.02" />
        <path
           id="path210"
           d="m 198.95,75.22 -0.25,-0.41 0.25,0.41" />
        <path
           id="path212"
           d="m 202.83,83.58 0.05,0.17 -0.11,-0.37 -0.94,-2.45 -1.02,-2.29 0.34,0.76" />
        <path
           id="path214"
           d="m 201.62,80.45 0.24,0.55 0.59,1.54" />
        <path
           id="path216"
           d="m 200.81,78.64 -0.02,-0.02" />
        <path
           id="path218"
           d="m 204.7,92.65 0.04,2.13 -0.14,2.05 -0.32,1.9 -0.44,1.57 0.44,-1.56 0.32,-1.91 0.14,-2.04 -0.04,-2.14 -0.22,-2.23 -0.4,-2.31 -0.57,-2.36 -0.63,-2 0.63,2 0.57,2.35 0.4,2.3 0.22,2.24" />
        <path
           id="path220"
           d="m 203.08,58.08 0.95,0.05 1,-0.01 0.8,-0.07 0.88,-0.14" />
        <path
           id="path222"
           d="m 207.43,57.73 -0.76,0.19" />
        <path
           id="path224"
           d="m 207.88,57.58 -0.46,0.16" />
        <path
           id="path226"
           d="m 207.8,57.55 -0.06,-0.02" />
        <path
           id="path228"
           d="m 207.57,57.43 -0.13,-0.06" />
        <path
           id="path230"
           d="m 208.68,102.57 0.16,-0.11" />
        <path
           id="path232"
           d="m 209.58,101.9 -0.06,0.05" />
        <path
           id="path234"
           d="m 209.84,72.55 7.64,-4.77" />
        <path
           id="path236"
           d="m 212.79,97.27 -0.47,1.06 -0.58,1.04 -0.69,0.98" />
        <path
           id="path238"
           d="m 211.04,100.37 -0.7,0.81" />
        <path
           id="path240"
           d="m 210.28,101.24 0.04,-0.04" />
        <path
           id="path242"
           d="m 211.89,78.6 -0.09,-0.24 0.49,1.47 -0.06,-0.18" />
        <path
           id="path244"
           d="m 211.8,78.36 -0.01,-0.04" />
        <path
           id="path246"
           d="m 211.92,78.7 2.27,-2.75 1.63,-1.91" />
        <path
           id="path248"
           d="m 212.82,97.25 h -0.01 l 0.08,-0.09 -0.07,0.09" />
        <path
           id="path250"
           d="m 212.89,97.16 0.98,-1.04 -0.53,0.57" />
        <path
           id="path252"
           d="m 212.99,97.07 6.59,-7.22 -0.43,0.48" />
        <path
           id="path254"
           d="m 213.38,84.11 -0.18,-0.88 -0.39,-1.62 -0.1,-0.34" />
        <path
           id="path256"
           d="m 213.27,83.58 0.25,1.26 0.23,1.58 -0.03,-0.24" />
        <path
           id="path258"
           d="m 212.78,81.49 -0.3,-1.04 0.09,0.31" />
        <path
           id="path260"
           d="m 212.29,79.83 0.19,0.62" />
        <path
           id="path262"
           d="m 213.87,96.12 0.51,-0.56 -0.51,0.56" />
        <path
           id="path264"
           d="m 218.65,90.91 -2.06,2.27 -2.21,2.38 0.41,-0.43" />
        <path
           id="path266"
           d="m 213.95,88.86 v -0.05 l 0.03,0.68 -0.01,1.48 -0.07,1.17 -0.1,0.96 0.03,-0.24" />
        <path
           id="path268"
           d="M 213.8,93.1 V 93.07" />
        <path
           id="path270"
           d="m 213.88,92.39 -0.05,0.45" />
        <path
           id="path272"
           d="m 213.97,89.2 v 0.06" />
        <path
           id="path274"
           d="m 213.95,88.81 -0.04,-0.83 -0.03,-0.33" />
        <path
           id="path276"
           d="m 213.89,87.76 -0.11,-1.04 0.06,0.55" />
        <path
           id="path278"
           d="m 213.75,86.42 0.03,0.3" />
        <path
           id="path280"
           d="m 213.48,84.63 -0.03,-0.16" />
        <path
           id="path282"
           d="m 213.52,84.84 0.13,0.83" />
        <path
           id="path284"
           d="m 216.42,73.33 0.2,-0.22" />
        <path
           id="path286"
           d="m 217.21,67.14 0.31,0.41 -1.99,-2.64" />
        <path
           id="path288"
           d="m 216.79,72.75 v -0.02 l -0.03,0.18 0.03,-0.15" />
        <path
           id="path290"
           d="m 217.52,67.55 0.05,0.07" />
        <path
           id="path292"
           d="m 217.65,67.88 0.22,0.69" />
        <path
           id="path294"
           d="m 217.71,67.96 0.03,0.11 -0.02,-0.08" />
        <path
           id="path296"
           d="m 217.83,68.34 -0.09,-0.27 0.08,0.24" />
        <path
           id="path298"
           d="m 217.88,68.52 -0.03,-0.1" />
        <path
           id="path300"
           d="m 217.66,67.81 0.01,0.02" />
        <path
           id="path302"
           d="m 217.65,67.78 -0.01,-0.03" />
        <path
           id="path304"
           d="m 219.58,89.85 0.78,-0.85 -0.75,0.82" />
        <path
           id="path306"
           d="m 220.5,87.92 -0.02,0.75" />
        <path
           id="path308"
           d="M 220.42,87.51 220.41,87.5" />
      </g>
      <g
         id="g332"
         style="stroke:#000020;stroke-width:0.176">
        <path
           id="path312"
           d="m 168.25,63.27 0.57,-1.13 1.36,-1.78 1.65,-1.39 8.77,-4.84 -0.02,0.01" />
        <path
           id="path314"
           d="m 180.6,54.13 0.93,-0.41 1.03,-0.32 1.08,-0.22 0.6,-0.08 8.11,-0.44 2.48,-0.21 2.49,-0.26 2.8,-0.43 1.05,-0.19 0.27,-0.01 0.14,0.05 0.1,0.03 0.05,0.04 1.84,1.38 0.07,0.06 0.09,0.12 0.22,0.36 0.25,0.37 0.3,0.41 0.33,0.42 0.37,0.44 0.4,0.45 0.41,0.43 0.42,0.41 0.41,0.36 0.39,0.31 0.34,0.23 0.31,0.15 0.34,-0.11 h 0.14 l 0.16,0.01 0.24,0.11 0.09,0.08 2.37,2.36 2.24,2.41 2.12,2.51 1.59,2.1 0.4,0.56 0.06,0.12 0.03,0.08" />
        <path
           id="path316"
           d="m 194.47,108.78 0.32,0.05 2.29,-0.11 2.12,-0.55 1.89,-0.98 7.37,-4.46 0.85,-0.61 0.24,-0.19 0.78,-0.73 0.32,-0.36 0.39,-0.47 0.27,-0.34 2.36,-3.2 2.58,-3.22 2.4,-2.7 1.69,-1.85 0.07,-0.12 0.05,-0.11 0.03,-0.2 0.03,-0.79 -0.04,-0.18 -0.02,-0.06 -0.08,-0.16 -0.56,-0.84 -1.05,-1.34 -0.17,-0.21" />
        <path
           id="path318"
           d="m 201.33,51.56 0.02,-0.01" />
        <path
           id="path320"
           d="m 215.82,74.04 0.6,-0.71" />
        <path
           id="path322"
           d="m 217.71,67.96 -0.02,-0.05 0.2,0.62 0.01,0.22 -0.02,0.14 -0.58,1.95 -0.5,1.95 -0.04,0.12 -0.07,0.11 -0.09,0.11 -0.34,0.39" />
        <path
           id="path324"
           d="m 217.65,67.78 0.07,0.21" />
        <path
           id="path326"
           d="m 217.83,68.34 0.02,0.08 -0.03,-0.11" />
        <path
           id="path328"
           d="m 220.51,87.88 -0.02,0.75" />
        <path
           id="path330"
           d="M 220.42,87.52 220.41,87.5" />
      </g>
    </g>
    <g
       id="Actor_.1">
      <g
         id="g345"
         style="stroke:#000020;stroke-width:0.141">
        <path
           id="path335"
           d="m 120.9,110.08 -0.64,0.45 -0.72,1.1 -0.41,1.42 -0.09,1.68 0.05,0.32" />
        <path
           id="path337"
           d="m 149.17,134.86 0.72,-0.47 1.47,-1.55 1.17,-1.92 0.86,-2.26 0.52,-2.57 0.17,-2.82 -0.16,-3.02 -0.02,-0.1 -0.49,-3.06 -0.85,-3.25 -1.16,-3.27 -1.46,-3.24 -1.73,-3.14 -1.96,-2.99 -2.17,-2.77 -2.32,-2.52 -2.44,-2.2 -2.51,-1.86 -2.54,-1.47 -2.5,-1.05 -1.05,-0.27 -1.4,-0.36 -2.33,-0.18 -2.17,0.26 -1.97,0.71 -1.46,0.84" />
        <path
           id="path339"
           d="m 149.07,135.96 1.3,-0.85 1.52,-1.59 1.21,-1.99 0.88,-2.34 0.54,-2.65 0.18,-2.91 -0.17,-3.12 -0.53,-3.27 -0.87,-3.35 -1.2,-3.39 -1.51,-3.34 -1.78,-3.25 -2.03,-3.08 -2.24,-2.88 -2.41,-2.6 -2.53,-2.28 -2.59,-1.91 -2.63,-1.52 -2.6,-1.09 -2.53,-0.65 -2.4,-0.18 -2.25,0.28 -2.03,0.74" />
        <path
           id="path341"
           d="m 125.02,125.39 1.08,0.69 1.48,0.57 1.38,0.13 1.07,-0.26" />
        <path
           id="path343"
           d="m 187.03,113.08 1.07,-1.75 0.88,-2.34 0.54,-2.65 0.18,-2.91 -0.17,-3.13 -0.53,-3.26 -0.87,-3.36 -1.2,-3.38 -1.51,-3.35 -1.78,-3.25 -2.03,-3.08 -2.24,-2.87 -2.41,-2.6 -2.52,-2.28 -2.6,-1.92 -2.63,-1.52 -2.6,-1.09 -2.52,-0.64 -2.41,-0.19 -0.98,0.12" />
      </g>
      <g
         id="g351"
         style="stroke:#000020;stroke-width:0.176">
        <path
           id="path347"
           d="m 174.65,59.58 -13.95,8.05 -1.26,0.16 -2.04,0.74 -35,20.21 -1.79,1.18 -0.34,0.35" />
        <path
           id="path349"
           d="m 149.07,136 34.51,-19.92 1.79,-1.18 1.52,-1.59 0.14,-0.23 13.8,-7.97" />
      </g>
    </g>
    <g
       id="Actor_.2">
      <g
         id="g514"
         style="stroke:#000020;stroke-width:0.141">
        <path
           id="path354"
           d="m 104.9,116.86 0.26,-3.1" />
        <path
           id="path356"
           d="m 106.07,112.72 0.21,-0.14 0.26,-0.1 -1,0.58" />
        <path
           id="path358"
           d="m 105.2,113.54 -0.04,0.17 0.07,-0.29" />
        <path
           id="path360"
           d="m 106.67,117.13 -0.03,-0.22 0.06,-0.43 0.18,-0.31 0.28,-0.17 0.35,-0.01 0.4,0.15 0.4,0.3 0.36,0.41 0.29,0.49 0.18,0.52 0.07,0.5 -0.06,0.43 -0.17,0.31 -0.29,0.17 -0.35,0.01 -0.4,-0.15 -0.4,-0.3 -0.36,-0.41 -0.29,-0.49 -0.18,-0.52 -0.04,-0.28" />
        <path
           id="path362"
           d="m 107.93,113.78 -2.07,-0.57" />
        <path
           id="path364"
           d="m 106.52,112.49 0.02,-0.01 0.26,0.03 1.52,0.41" />
        <path
           id="path366"
           d="m 106.62,96.47 0.26,-3.08 0.06,-0.25 0.11,-0.19 0.17,-0.11 0.21,-0.03 2.56,0.12" />
        <path
           id="path368"
           d="m 109.4,100.64 -0.13,-0.31 -0.19,-0.28 -1.77,-1.99" />
        <path
           id="path370"
           d="m 110.43,121.52 -1.76,0.39" />
        <path
           id="path372"
           d="m 108.29,113.58 0.04,-0.02 -0.02,0.01" />
        <path
           id="path374"
           d="m 108.36,113.48 -0.02,0.05 0.02,-0.07 v 0.02" />
        <path
           id="path376"
           d="m 108.34,113.53 -0.05,0.15" />
        <path
           id="path378"
           d="m 108.35,113.51 -0.03,0.06 0.01,-0.02" />
        <path
           id="path380"
           d="m 108.36,113.46 v -0.24" />
        <path
           id="path382"
           d="m 108.36,113.23 -0.29,-1.99 -0.15,-1.92 v -0.66 0.65" />
        <path
           id="path384"
           d="m 107.92,108.48 v 0.18 -1.05 0.87" />
        <path
           id="path386"
           d="m 107.99,106.67 -0.07,0.78 v 0.16 -0.2 l 0.08,-0.84 -0.01,0.1" />
        <path
           id="path388"
           d="m 109.38,101.13 -0.57,1.4 -0.44,1.52 -0.3,1.64 -0.07,0.88 0.07,-0.92 0.3,-1.65 0.44,-1.53 0.58,-1.4" />
        <path
           id="path390"
           d="m 108.76,97.25 -0.1,-0.17 -0.19,-0.52 -0.06,-0.5 0.05,-0.42 0.18,-0.32 0.28,-0.17 0.36,-0.01 0.4,0.15 0.4,0.3 0.36,0.42 0.28,0.49 0.19,0.52 0.07,0.49 -0.06,0.43 -0.18,0.31 -0.28,0.17 -0.36,0.01 -0.39,-0.15 -0.4,-0.29 -0.36,-0.42 -0.19,-0.32" />
        <path
           id="path392"
           d="m 109.26,121.84 1.31,-0.29 0.06,-0.01 h -0.04 0.05 l 0.23,0.12 0.2,0.21 0.18,0.29 0.87,1.77 0.96,1.73 1.03,1.69 1.11,1.62 1.18,1.56 1.23,1.48 1.28,1.39 1.32,1.29 0.21,0.25 0.16,0.31 0.06,0.28 -0.01,0.25 -0.57,2.06 -0.03,0.27" />
        <path
           id="path394"
           d="m 109.39,100.62 0.04,0.26 -0.05,0.24 0.03,-0.09" />
        <path
           id="path396"
           d="m 109.41,101.02 -0.02,0.06" />
        <path
           id="path398"
           d="m 110.52,121.54 h -0.04 0.13" />
        <path
           id="path400"
           d="m 110.63,121.54 0.05,0.02" />
        <path
           id="path402"
           d="m 110.74,102.39 -0.14,-0.38 -0.18,-1.33 0.16,-1.15 0.48,-0.84 0.75,-0.45 0.96,-0.03 0.04,0.02 -0.02,0.03 -0.15,1.14 0.18,1.33 0.5,1.39 0.77,1.32 1.34,1.88 0.97,1.11 1.07,0.79 1.02,0.39 -0.46,0.81 -0.76,0.46 -0.95,0.03 -1.07,-0.41 -1.06,-0.79 -0.97,-1.12 -1.34,-1.87 -0.78,-1.32 -0.36,-1.01" />
        <path
           id="path404"
           d="m 112.56,96.41 -1.5,-2.63" />
        <path
           id="path406"
           d="m 123.78,94.22 -0.01,0.13 0.02,-0.34 0.13,-0.32 0.13,-0.13 0.1,-0.08 0.8,-0.49 0.25,-0.04 -14.25,-0.67 0.3,0.07 0.34,0.21 0.31,0.32 0.21,0.32 1.47,2.56 0.13,0.19 0.16,0.15 0.06,0.03 -0.79,0.52" />
        <path
           id="path408"
           d="m 112.81,98.23 1.02,0.39 0.92,0.68 -0.09,0.05 -0.25,0.43 -0.08,0.58 0.1,0.67 0.25,0.71 0.39,0.67 1.35,1.87 0.49,0.57 0.54,0.4 0.54,0.21 0.48,-0.02 0.05,-0.03 0.14,1.03 -0.15,1.14 -0.02,0.03" />
        <path
           id="path410"
           d="m 113.93,96.13 0.11,0.06 0.15,0.02 0.1,-0.02 1.69,-0.63 1.93,-0.29 2.08,0.1 2.18,0.48 1.74,0.65 0.03,0.47" />
        <path
           id="path412"
           d="m 123.41,97.39 -1.59,-0.63 -0.86,-0.27 -0.69,-0.18 -0.84,-0.16 -0.67,-0.1 -0.81,-0.05 -0.65,-0.02 -0.77,0.06 -0.61,0.07 -0.74,0.15 -0.57,0.16 -1.22,0.5" />
        <path
           id="path414"
           d="m 114.75,99.3 0.15,0.11 0.96,1.11 1.35,1.88 0.77,1.32 0.5,1.39 0.04,0.3" />
        <path
           id="path416"
           d="m 123.83,110.13 -0.48,-0.18 -1.38,-0.13 -1.22,0.29 -1,0.72 -0.72,1.09 -0.42,1.43 -0.08,1.68 0.04,0.32" />
        <path
           id="path418"
           d="m 120.06,138.07 0.02,-0.16" />
        <path
           id="path420"
           d="m 120.25,137.18 0.4,-1.46" />
        <path
           id="path422"
           d="m 120.65,135.75 v 0.03" />
        <path
           id="path424"
           d="m 122.22,139.07 -0.06,-0.5 0.05,-0.43 0.18,-0.31 0.28,-0.17 0.36,-0.01 0.4,0.15 0.02,0.02 0.38,0.28 0.36,0.41 0.28,0.49 0.19,0.52 0.07,0.5 -0.06,0.43 -0.18,0.31 -0.28,0.17 -0.36,0.01 -0.39,-0.15 -0.4,-0.3 -0.36,-0.41 -0.29,-0.5 -0.19,-0.51" />
        <path
           id="path426"
           d="m 123.21,142.9 0.25,0.13 0.24,0.05 2.55,0.12" />
        <path
           id="path428"
           d="m 123.9,97.17 -0.03,0.03 0.03,-0.02 -0.03,0.01 0.03,-0.03 v 0.02 l 0.02,-0.05 -0.01,0.06" />
        <path
           id="path430"
           d="m 123.91,96.5 -0.14,-2.09 0.01,-0.27" />
        <path
           id="path432"
           d="m 123.94,96.92 -0.02,0.21" />
        <path
           id="path434"
           d="m 130.12,97.58 -2.3,-3.21 -0.12,-0.16 -0.1,-0.1 -0.13,-0.12 -0.11,-0.08 -0.14,-0.09 -0.11,-0.05 -0.13,-0.03 -0.1,-0.02 -2.56,-0.12" />
        <path
           id="path436"
           d="m 124.5,125.68 1.09,0.7 1.47,0.56 1.39,0.14 1.22,-0.3 1,-0.71 0.72,-1.1 0.35,-1.18" />
        <path
           id="path438"
           d="m 126.23,98.38 -0.29,-0.49 -0.18,-0.52 -0.07,-0.49 0.06,-0.43 0.18,-0.32 0.28,-0.16 0.35,-0.01 0.4,0.15 0.4,0.29 0.36,0.42 0.29,0.49 0.18,0.52 0.07,0.5 -0.06,0.42 -0.17,0.32 -0.29,0.17 -0.35,0.01 -0.4,-0.15 -0.4,-0.3 -0.36,-0.42" />
        <path
           id="path440"
           d="m 126.62,139.87 0.18,2.56" />
        <path
           id="path442"
           d="m 137.31,139.93 0.08,-0.02 -1.22,0.5 -1.4,0.34 -1.39,0.12 -1.54,-0.08 -1.52,-0.26 -1.55,-0.45 -1.05,-0.41 0.15,2.25 -0.02,0.35 -0.11,0.27 -0.22,0.18 -0.09,0.04" />
        <path
           id="path444"
           d="m 126.99,139.46 0.08,-0.04 -0.04,0.01 0.02,-0.01" />
        <path
           id="path446"
           d="m 127.07,139.42 h 0.02 v 0" />
        <path
           id="path448"
           d="m 127.14,139.43 1.59,0.63 1.55,0.45 1.51,0.25 0.83,0.05 0.63,0.02 0.79,-0.06 0.59,-0.06 0.76,-0.17 0.55,-0.14 1.22,-0.5" />
        <path
           id="path450"
           d="m 127.03,139.43 h -0.02" />
        <path
           id="path452"
           d="m 127.09,139.42 0.63,0.25" />
        <path
           id="path454"
           d="m 127.55,93.72 4.63,-2.68" />
        <path
           id="path456"
           d="m 130.32,102.11 0.53,0.5 0.98,0.98 0.51,0.55 0.94,1.07 0.49,0.58 0.9,1.15 0.46,0.61 0.84,1.21 0.44,0.65 0.78,1.26 0.4,0.66 0.71,1.31 0.67,1.31 0.34,0.71" />
        <path
           id="path458"
           d="m 130.21,101.48 0.84,-0.46 0.05,0.12 0.13,0.2 2.15,2.19 2.02,2.4 1.87,2.6 1.68,2.76 1.39,2.74 0.12,0.2 0.15,0.17 0.06,0.05 -0.8,0.52" />
        <path
           id="path460"
           d="m 130.48,98.98 -0.57,2.05" />
        <path
           id="path462"
           d="m 139.82,137.39 -0.46,0.81 -0.75,0.46 -0.96,0.02 -1.06,-0.4 -1.07,-0.8 -0.97,-1.11 -1.34,-1.88 -0.77,-1.31 -0.5,-1.39 -0.19,-1.34 0.16,-1.14 0.48,-0.84 0.75,-0.46 0.96,-0.02 0.04,0.01 -0.02,0.03 -0.15,1.14 0.18,1.34 0.5,1.39 0.77,1.32 1.35,1.87 0.96,1.11 1.07,0.8 1.02,0.39 0.02,-0.03 0.16,-1.14 -0.19,-1.34 -0.5,-1.39 -0.77,-1.31 -1.34,-1.88 -0.97,-1.11 -0.15,-0.11 -0.09,0.05 -0.24,0.42 -0.08,0.58 0.09,0.68 0.25,0.71 0.39,0.66 1.35,1.88 0.49,0.56 0.54,0.41 0.54,0.2 0.49,-0.01 0.05,-0.03" />
        <path
           id="path464"
           d="m 131.05,101.02 -0.03,-0.08 -0.04,-0.21 0.02,-0.18 0.55,-2.01 0.04,-0.3 -0.06,-0.42 -0.15,-0.41 -0.23,-0.38 12.8,17.86 -0.26,-0.31 -0.33,-0.25 -0.31,-0.13 h -0.29 l -1.71,0.37 -0.12,0.01 -0.16,-0.06 -0.1,-0.07" />
        <path
           id="path466"
           d="m 150.67,117.09 -0.01,-0.3 -0.07,-0.32 -0.14,-0.32 -0.18,-0.3 -17.45,-24.36 -0.22,-0.26 -0.27,-0.22" />
        <path
           id="path468"
           d="m 134.14,128 1.02,0.39 0.92,0.69" />
        <path
           id="path470"
           d="m 137.79,140.13 0.2,0.28 1.51,2.62 0.21,0.31" />
        <path
           id="path472"
           d="m 137.36,139.88 0.22,0.08 0.22,0.18" />
        <path
           id="path474"
           d="m 137.4,139.91 h 0.04 -0.07 l 0.03,-0.01" />
        <path
           id="path476"
           d="m 140.12,141.04 -0.14,-0.15 -0.29,-0.49 -0.18,-0.52 -0.07,-0.5 0.06,-0.42 0.18,-0.32 0.28,-0.17 0.35,-0.01 0.4,0.15 0.4,0.3 0.36,0.41 0.29,0.49 0.18,0.52 0.07,0.5 -0.06,0.43 -0.18,0.31 -0.28,0.17 -0.35,0.01 -0.4,-0.15 -0.4,-0.3 -0.22,-0.26" />
        <path
           id="path478"
           d="m 143.95,140.33 -0.26,3.09 -0.01,0.1 -0.04,0.14 -0.05,0.08 -0.07,0.11 -0.17,0.11 -0.21,0.04 -2.56,-0.12" />
        <path
           id="path480"
           d="m 143.18,144.02 -2.49,-0.12" />
        <path
           id="path482"
           d="m 140.34,143.83 0.19,0.04 -0.19,-0.04" />
        <path
           id="path484"
           d="m 140.62,143.89 -0.06,-0.01 0.05,0.01" />
        <path
           id="path486"
           d="m 140.53,143.87 0.03,0.01" />
        <path
           id="path488"
           d="m 141.17,135.68 0.58,-1.39 0.26,-0.86 0.17,-0.66 0.19,-0.93 0.11,-0.72 0.1,-0.99 0.05,-0.76 0.02,-1.05 -0.02,-0.8 -0.06,-1.09 -0.09,-0.84 -0.29,-1.98" />
        <path
           id="path490"
           d="m 140.13,115.29 1.76,-0.39" />
        <path
           id="path492"
           d="m 143.4,138.93 -1.93,-2.17" />
        <path
           id="path494"
           d="m 141.41,136.11 0.85,-0.44 0.03,0.12 0.12,0.21 0.1,0.15 1.89,2.12 0.15,0.19 0.23,0.38 0.16,0.43 0.05,0.41 -0.01,0.11 1.46,-17.19 -0.08,0.31 -0.16,0.21 -0.79,0.4 0.01,-0.01" />
        <path
           id="path496"
           d="m 142.26,135.67 -0.03,-0.08 -0.01,-0.2 0.04,-0.16 0.75,-1.93 0.51,-2.28 0.21,-2.51 -0.08,-2.68 -0.35,-2.61 1.44,0.4 0.34,0.03 0.18,-0.04 0.1,-0.06 -0.05,0.03 0.02,-0.01" />
        <path
           id="path498"
           d="m 141.84,120.15 0.27,0.31 0.4,0.29 0.39,0.15 0.36,-0.01 0.28,-0.17 0.18,-0.31 0.06,-0.43 -0.07,-0.49 -0.19,-0.52 -0.28,-0.49 -0.36,-0.42 -0.4,-0.3 -0.4,-0.15 -0.36,0.01 -0.28,0.17 -0.18,0.32 -0.05,0.42 0.06,0.5 0.19,0.52 0.29,0.49 0.09,0.11" />
        <path
           id="path500"
           d="m 142.51,123.13 0.17,-0.08 h -0.08" />
        <path
           id="path502"
           d="m 142.68,123.05 0.62,0.17" />
        <path
           id="path504"
           d="m 144.7,123.6 -2.07,-0.57" />
        <path
           id="path506"
           d="m 142.99,115.53 2.37,3.33 0.17,0.31 0.07,0.19 0.03,0.13 0.04,0.18 0.01,0.12 v 0.18 l -0.26,3.08" />
        <path
           id="path508"
           d="m 143.76,143.84 4.63,-2.68" />
        <path
           id="path510"
           d="m 145.41,123.52 -0.05,0.03 0.18,-0.1" />
        <path
           id="path512"
           d="m 145.85,119.26 4.63,-2.68" />
      </g>
      <g
         id="g524"
         style="stroke:#000020;stroke-width:0.176">
        <path
           id="path516"
           d="m 120.05,138.11 0.03,-0.31 0.17,-0.62 -10.99,-15.34 -0.45,0.1 -0.35,-0.01 -0.33,-0.14 -0.31,-0.23 -0.24,-0.29 -2.3,-3.2 -0.18,-0.29 -0.12,-0.31 -0.08,-0.31 -0.01,-0.36 0.27,-3.08 0.05,-0.21 0.05,-0.14 0.1,-0.16 0.09,-0.09 0.62,-0.4 1.24,-14.66 -0.17,-0.19 -0.23,-0.31 -0.17,-0.35 -0.11,-0.39 -0.01,-0.38 0.26,-3.09 0.06,-0.25 0.16,-0.28 0.07,-0.06 0.18,-0.12 4.64,-2.68 0.08,-0.03 0.23,-0.03 19.44,0.91 0.09,0.01 0.24,0.05 0.31,0.17 0.24,0.2 0.21,0.25 17.45,24.37 0.18,0.29 0.13,0.31 0.07,0.3 0.01,0.36 -1.99,23.45 -0.05,0.26 -0.17,0.27 -0.07,0.06 -0.18,0.12 -4.63,2.68 -0.09,0.03 -0.22,0.03 -2.56,-0.12 -0.16,-0.02 -0.25,-0.07 -0.29,-0.18 -0.3,-0.29 -12.28,-0.58 -0.66,0.37 -0.1,0.04 -0.17,0.05 -0.12,0.01 -2.64,-0.13 -0.25,-0.05 -0.31,-0.17 -0.23,-0.19 -0.21,-0.26 -2.3,-3.2 -0.2,-0.34 -0.13,-0.36 -0.06,-0.38 0.01,-0.08" />
        <path
           id="path518"
           d="m 123.83,110.13 1,0.38 1.5,0.96 1.44,1.31 1.31,1.6 1.12,1.8 0.86,1.91 0.58,1.93 0.25,1.85 -0.08,1.68 -0.07,0.24" />
        <path
           id="path520"
           d="m 140.64,143.9 h 0.04" />
        <path
           id="path522"
           d="m 140.69,143.9 h -0.03" />
      </g>
    </g>
    <g
       id="Actor_.3">
      <g
         id="g635"
         style="stroke:#000020;stroke-width:0.141">
        <path
           id="path527"
           d="m 114.81,120.15 0.09,-0.04 0.07,-0.03 0.07,-0.01 0.13,-0.02 0.11,-0.01 0.05,0.01 0.09,0.01 0.13,0.03 0.06,0.04 0.06,0.03 0.08,0.04 0.06,0.01 0.04,0.01 0.09,-0.03 0.06,-0.08 0.03,-0.12 -0.01,-0.14 -0.04,-0.15 -0.08,-0.15 -0.02,-0.02" />
        <path
           id="path529"
           d="m 116.28,122.02 v 0.03 l -0.05,0.09 -0.03,0.02 -0.04,0.03 -0.07,0.01 h -0.05 -0.06 l -0.07,0.03" />
        <path
           id="path531"
           d="m 116.03,119.99 -0.33,0.19" />
        <path
           id="path533"
           d="m 116.05,118.58 0.47,-0.27" />
        <path
           id="path535"
           d="m 116.09,117.38 0.03,0.11 0.06,0.15 0.07,0.17 0.06,0.12 0.05,0.08 0.08,0.13 0.03,0.06 0.05,0.1 0.03,0.15 -0.01,0.13 -0.05,0.1 -0.08,0.06 -0.1,0.01 -0.12,-0.05 -0.03,-0.02 -0.05,-0.04 -0.04,-0.04 -0.1,-0.11 -0.06,-0.07 -0.13,-0.11 -0.09,-0.06 -0.12,-0.08 -0.07,-0.03 -0.15,-0.07 -0.17,-0.07 -0.11,-0.04" />
        <path
           id="path537"
           d="m 122.41,113.14 -6.18,3.57 -0.26,0.14" />
        <path
           id="path539"
           d="m 116.67,123.33 -0.04,0.02 -0.04,0.02 -0.04,0.03" />
        <path
           id="path541"
           d="m 117.12,122.48 0.33,0.64 0.43,0.57 0.5,0.42 0.44,0.22 0.07,0.03 0.47,0.05 0.39,-0.15 0.27,-0.35 0.13,-0.5 -0.04,-0.61 -0.2,-0.66 -0.33,-0.64 -0.43,-0.56 -0.5,-0.43 -0.51,-0.25 -0.47,-0.05 -0.39,0.15 -0.27,0.35 -0.12,0.5 0.04,0.61 0.19,0.66" />
        <path
           id="path543"
           d="m 116.76,122.53 0.41,0.8 0.55,0.71 0.63,0.54 0.64,0.32 0.59,0.06 0.5,-0.2 0.33,-0.43 0.16,-0.64 -0.05,-0.77 -0.24,-0.83 -0.42,-0.8 -0.55,-0.71 -0.62,-0.54 -0.64,-0.32 -0.6,-0.06 -0.49,0.2 -0.34,0.43 -0.15,0.64 0.04,0.77 0.25,0.83" />
        <path
           id="path545"
           d="m 116.23,122.13 -0.11,0.07" />
        <path
           id="path547"
           d="m 116.47,120.93 v -0.64 l 0.19,-0.8 0.42,-0.54 0.62,-0.25 0.74,0.08 0.81,0.4 0.78,0.67 0.68,0.88 0.52,1.01 0.31,1.04 0.06,0.96 -0.19,0.79 -0.43,0.55 -0.61,0.24 -0.75,-0.07 -0.8,-0.4 -0.47,-0.27" />
        <path
           id="path549"
           d="m 117.62,117.46 -0.54,0.31" />
        <path
           id="path551"
           d="m 117.26,118.01 0.44,-0.25 0.02,0.1 v 0.04 l -0.03,0.12 -0.06,0.08 -0.08,0.03 -0.11,-0.01 -0.11,-0.05 -0.07,-0.06 -0.07,-0.06 -0.03,-0.05 -0.05,-0.07 -0.05,-0.1 -0.07,-0.16 -0.1,-0.15 -0.13,-0.17 -0.11,-0.14 -0.14,-0.14 -0.16,-0.16 -0.12,-0.1" />
        <path
           id="path553"
           d="m 117.76,125.43 0.04,-0.03 0.07,-0.05 0.05,-0.05 0.05,-0.07 0.02,-0.06 0.02,-0.08 0.21,-0.12 -0.03,-0.01 -0.1,0.03 -0.02,0.02 -0.03,0.02 -0.03,0.06" />
        <path
           id="path555"
           d="m 117.59,118.12 0.05,-0.03" />
        <path
           id="path557"
           d="m 117.7,117.76 -0.02,-0.08 -0.05,-0.16 -0.03,-0.16 v -0.18 -0.15 l 0.02,-0.16 0.04,-0.17 0.03,-0.11 0.35,0.08 0.08,0.14 0.12,0.22 0.1,0.18 0.07,0.17 0.07,0.19 0.06,0.17 v 0.08 l 0.01,0.07 0.01,0.07 0.01,0.06 0.02,0.05 0.02,0.05 0.07,0.13 0.09,0.11 0.11,0.09 0.1,0.05 0.09,0.02 0.15,-0.09 v 0.01 l -0.07,0.06 -0.08,0.02" />
        <path
           id="path559"
           d="m 118.04,116.67 6.17,-3.56" />
        <path
           id="path561"
           d="m 122.87,113.6 -5.18,2.99" />
        <path
           id="path563"
           d="m 118.22,124.97 0.08,0.02 0.11,0.07" />
        <path
           id="path565"
           d="m 119.34,117.96 -0.61,0.35" />
        <path
           id="path567"
           d="m 124.73,114.36 -6.18,3.57" />
        <path
           id="path569"
           d="m 119.6,126.14 v -0.09 l 0.01,-0.04 0.01,-0.04 0.05,-0.09 0.08,-0.05 h 0.11 l 0.12,0.05 0.02,0.02 -0.4,0.24 0.02,0.1 0.01,0.08 -0.01,0.15 -0.01,0.1 -0.02,0.06 -0.03,0.12 -0.06,0.13 -0.03,0.06 -0.04,0.07 -0.06,0.09" />
        <path
           id="path571"
           d="m 120,125.9 0.1,0.08 0.1,0.13 0.02,0.05 0.05,0.11 0.05,0.14 0.02,0.09 0.01,0.03" />
        <path
           id="path573"
           d="m 126.25,114.29 -6.18,3.57 0.04,0.15 0.05,0.22 0.03,0.18 0.01,0.09 0.01,0.14 v 0.11 l -0.01,0.14 -0.03,0.06 -0.02,0.05 -0.01,0.05 -0.01,0.05 v 0.04 0.05 l 0.03,0.15 0.08,0.16 6.17,-3.57" />
        <path
           id="path575"
           d="m 120.24,119.5 0.1,0.14 0.11,0.1 0.12,0.06 0.1,0.01 0.03,-0.01 0.04,-0.02 0.03,-0.02 0.03,-0.03 0.03,-0.04 0.03,-0.05 0.09,-0.05 0.08,-0.03 0.09,-0.02 h 0.06 l 0.14,-0.01 0.07,0.01 0.08,0.01 0.12,0.02 0.27,0.42 v 0.03 l -0.03,0.19 -0.04,0.16 -0.04,0.13 -0.05,0.1 -0.04,0.07 -0.07,0.09 -0.05,0.01 -0.04,0.02 -0.04,0.03 -0.03,0.02 -0.02,0.03 -0.02,0.03 -0.02,0.12 0.01,0.13 0.05,0.14 6.17,-3.56" />
        <path
           id="path577"
           d="m 120.14,119.03 6.18,-3.57" />
        <path
           id="path579"
           d="m 119.22,118.43 0.03,-0.05 0.01,-0.07 0.01,-0.1 v -0.07 l 0.03,-0.09 0.03,-0.07 0.04,-0.09 0.07,-0.09 0.09,-0.09 0.05,-0.04 0.06,-0.05 0.08,-0.05 0.35,0.29" />
        <path
           id="path581"
           d="m 119.72,117.57 0.54,-0.32 -0.56,0.33" />
        <path
           id="path583"
           d="m 121.3,127.47 v -0.14 -0.2 l -0.02,-0.18 -0.02,-0.16 -0.05,-0.19 -0.05,-0.17 -0.04,-0.08 -0.05,-0.11 -0.04,-0.09 -0.02,-0.06 -0.01,-0.05 v -0.14 l 0.04,-0.11 0.07,-0.06 0.1,-0.03 0.11,0.04 0.12,0.07 0.04,0.04 0.04,0.04 0.04,0.06 -0.49,0.29" />
        <path
           id="path585"
           d="m 120.57,119.8 6.17,-3.57" />
        <path
           id="path587"
           d="m 120.86,119.64 5.9,-3.41" />
        <path
           id="path589"
           d="m 120.26,117.25 2.1,-1.2 -1.05,0.6" />
        <path
           id="path591"
           d="m 122.46,126.8 -0.15,-0.1 -0.16,-0.11 -0.14,-0.11 -0.11,-0.1 -0.09,-0.09 -0.12,-0.14 -0.04,-0.08 -0.09,-0.12" />
        <path
           id="path593"
           d="m 122.52,126.83 0.19,-0.24 -0.05,-0.15 -0.09,-0.22 -0.08,-0.2 -0.08,-0.16 -0.11,-0.18 -0.1,-0.16 -0.06,-0.06 -0.08,-0.09 -0.06,-0.08 -0.03,-0.05 -0.03,-0.05 -0.06,-0.15 -0.02,-0.15 0.02,-0.12 0.22,-0.13 h -0.07 l -0.09,0.04 -0.06,0.09" />
        <path
           id="path595"
           d="m 122.06,125.37 0.66,-0.38 0.12,0.03 0.14,0.03 0.08,0.01 h 0.08 0.11 l 0.03,-0.4 -0.1,-0.13 -0.14,-0.19 -0.14,-0.16 -0.17,-0.18 -0.09,-0.08 -0.13,-0.11 -0.06,-0.03 -0.06,-0.03 -0.05,-0.03 -0.05,-0.03 -0.04,-0.04 -0.04,-0.03 -0.1,-0.14 -0.07,-0.15 -0.04,-0.15 0.49,-0.28 -0.09,0.01 -0.07,-0.03 -0.05,-0.01 -0.08,-0.01 h -0.05 l -0.03,0.01 -0.08,0.07 -0.04,0.1 v 0.14" />
        <path
           id="path597"
           d="m 122.1,124.64 h 0.04 l 0.03,0.02 0.07,0.03 0.08,0.06 0.05,0.05 0.06,0.05 0.14,0.08 0.09,0.04 0.06,0.02" />
        <path
           id="path599"
           d="m 121.43,121.29 0.07,0.14 0.09,0.12 0.11,0.09 0.05,0.03 0.04,0.02 0.04,0.01 0.07,0.01 6.18,-3.57" />
        <path
           id="path601"
           d="m 121.9,121.71 0.08,-0.01 0.05,-0.01 0.13,0.03 0.09,0.03 0.05,0.02 0.13,0.07 0.15,0.09 0.17,0.11 0.12,0.09 0.14,0.46 -0.07,0.08 -0.05,0.04 -0.06,0.05 -0.05,0.03 -0.05,0.03 -0.1,0.05 -0.08,0.02 -0.06,0.01" />
        <path
           id="path603"
           d="m 121.51,120.78 -0.03,0.03" />
        <path
           id="path605"
           d="m 121.59,120.76 6.01,-3.48" />
        <path
           id="path607"
           d="M 121.59,119.57 127.76,116" />
        <path
           id="path609"
           d="m 121.86,119.99 6.18,-3.56" />
        <path
           id="path611"
           d="m 122.71,126.59 6.17,-3.57" />
        <path
           id="path613"
           d="m 123.28,124.66 6.17,-3.56" />
        <path
           id="path615"
           d="m 128.44,122.06 -5.19,3" />
        <path
           id="path617"
           d="m 122.36,123.74 6.18,-3.57" />
        <path
           id="path619"
           d="m 123.01,122.59 6.18,-3.56" />
        <path
           id="path621"
           d="m 122.73,122.82 5.46,-3.15" />
        <path
           id="path623"
           d="m 122.87,122.13 6.18,-3.57" />
        <path
           id="path625"
           d="m 122.36,116.05 2.46,-1.43" />
        <path
           id="path627"
           d="M 124.45,114.84 125.89,114" />
        <path
           id="path629"
           d="m 125.88,114.01 h -0.01" />
        <path
           id="path631"
           d="m 127.03,116.08 v -0.01" />
        <path
           id="path633"
           d="M 128.91,119.26 H 128.9" />
      </g>
      <g
         id="g639"
         style="stroke:#000020;stroke-width:0.176">
        <path
           id="path637"
           d="m 122.46,126.8 -1.16,0.67 -0.31,0.02 -0.18,-0.22 -0.07,-0.09 -0.12,-0.17 -0.14,-0.22 -0.06,-0.12 -0.07,-0.14 -0.98,0.57 -0.36,-0.2 -0.06,-0.15 -0.09,-0.22 -0.07,-0.19 -0.02,-0.09 -0.04,-0.15 -0.02,-0.12 -0.02,-0.16 0.01,-0.07 0.01,-0.06 v -0.06 l -0.01,-0.06 v -0.05 l -0.02,-0.05 -0.06,-0.15 -0.09,-0.14 -0.11,-0.12 h -0.01 l -0.65,0.37 -0.1,0.05 -0.06,0.03 -0.06,0.02 -0.08,0.01 -0.1,0.02 -0.32,-0.37 -0.01,-0.14 -0.01,-0.2 0.01,-0.17 v -0.07 l 0.02,-0.13 0.02,-0.09 0.05,-0.12 0.04,-0.04 0.03,-0.03 0.02,-0.04 0.02,-0.04 0.02,-0.04 v -0.04 -0.14 l -0.05,-0.16 -0.08,-0.14 -0.1,-0.13 -0.12,-0.1 -0.12,-0.04 -0.03,-0.01 h -0.04 l -0.04,0.01 -0.12,0.07 -0.12,0.01 h -0.08 l -0.11,-0.02 -0.07,-0.01 -0.14,-0.05 -0.17,-0.06 -0.12,-0.06 -0.21,-0.46 0.04,-0.1 0.04,-0.07 0.03,-0.06 0.08,-0.11 0.07,-0.08 0.03,-0.03 0.07,-0.05 0.39,-0.23 0.01,-0.1 -0.03,-0.15 -0.06,-0.16 -0.1,-0.14 -0.11,-0.11 -0.04,-0.02 -0.04,-0.03 -0.05,-0.02 -0.05,-0.01 -0.05,-0.02 h -0.06 l -0.14,-0.07 -0.09,-0.06 -0.12,-0.09 -0.06,-0.05 -0.15,-0.13 -0.16,-0.16 -0.11,-0.11 -0.06,-0.44 1.07,-0.62 -0.05,-0.07 -0.07,-0.06 -0.09,-0.07 -0.06,-0.05 -0.12,-0.13 -0.08,-0.11 -0.15,-0.21 -0.11,-0.18 -0.12,-0.21 -0.08,-0.15 0.12,-0.33 1.02,-0.58 -0.05,-0.17 -0.02,-0.1 -0.02,-0.12 -0.03,-0.14 6.18,-3.57 0.26,-0.14 0.11,0.1 0.17,0.16 0.07,0.08 0.11,0.12 1,-0.58 0.34,0.09 0.09,0.14 0.06,0.11 0.11,0.2 0.08,0.17 0.07,0.15 0.04,0.13 0.05,0.17 0.01,0.07 v 0.08 l 0.02,0.06 0.01,0.06 0.02,0.06 0.02,0.05 0.03,0.06 1.07,-0.62 0.36,0.29 0.04,0.15 0.04,0.22 0.03,0.19 0.01,0.08 0.01,0.14 v 0.11 l -0.01,0.15 -0.02,0.05 -0.02,0.05 -0.02,0.05 -0.01,0.05 v 0.05 0.04 l 0.04,0.16 0.07,0.15 0.1,0.14 0.12,0.1 0.11,0.06 h 0.02 l 0.27,-0.16 0.1,-0.05 0.07,-0.02 0.1,-0.02 0.12,-0.01 h 0.07 0.08 l 0.08,0.01 0.11,0.02 0.28,0.43 v 0.02 l -0.03,0.2 -0.04,0.15 -0.04,0.13 -0.05,0.1 -0.04,0.07 -0.07,0.09 -0.17,0.09 -0.02,0.03 -0.01,0.03 -0.02,0.11 0.01,0.13 0.04,0.15 0.08,0.13 0.09,0.12 0.11,0.09 0.05,0.04 0.04,0.01 0.04,0.01 0.04,0.01 h 0.05 l 0.05,-0.01 0.05,-0.01 0.13,0.03 0.1,0.04 0.11,0.05 0.07,0.03 0.15,0.09 0.17,0.12 0.12,0.08 0.14,0.47 -0.07,0.07 -0.06,0.05 -0.05,0.04 -0.05,0.04 -0.77,0.44 0.03,0.1 0.07,0.15 0.1,0.13 0.04,0.04 0.04,0.03 0.04,0.03 0.06,0.04 0.06,0.03 0.06,0.02 0.13,0.11 0.09,0.08 0.11,0.12 0.12,0.14 0.14,0.17 0.15,0.21 0.02,0.03 -0.03,0.39 -0.98,0.57 0.11,0.17 0.11,0.23 0.09,0.19 0.04,0.11 0.09,0.26 -0.19,0.24 -6.17,3.57 -0.06,-0.03" />
      </g>
    </g>
    <g
       id="Actor_.4">
      <g
         id="g790"
         style="stroke:#000020;stroke-width:0.141">
        <path
           id="path642"
           d="m 104.07,150.45 0.16,0.43 0.34,0.59 0.43,0.51 0.48,0.36 0.47,0.19 0.43,-0.01 0.34,-0.2 0.22,-0.37 0.08,-0.5 -0.08,-0.6 -0.22,-0.62 -0.34,-0.59 -0.43,-0.51 -0.47,-0.36 -0.48,-0.19 -0.43,0.01 -0.34,0.2 -0.22,0.37 -0.08,0.5 0.08,0.6 0.06,0.19" />
        <path
           id="path644"
           d="m 104.45,150.65 -0.13,-0.45 -0.03,-0.33 0.03,-0.3 0.13,-0.3 0.21,-0.18 0.22,-0.07 0.29,0.03 0.31,0.13 0.31,0.23 0.28,0.3 0.22,0.32 0.22,0.43 0.12,0.45 0.03,0.33 -0.03,0.3 -0.12,0.3 -0.22,0.18 -0.22,0.07 -0.25,-0.02 -0.34,-0.14 -0.35,-0.26 -0.25,-0.27 -0.22,-0.32 -0.21,-0.43" />
        <path
           id="path646"
           d="m 105.55,149.24 -0.25,-0.11 -0.42,-0.11 -0.04,0.17 -0.12,0.2 -0.21,0.25 -0.22,0.23 1.16,-0.67" />
        <path
           id="path648"
           d="m 106.66,151.24 -0.02,0.12 -0.09,0.18 -0.18,0.23 -0.3,0.32 -0.14,-0.2 -0.25,-0.21 -0.32,-0.15 -0.48,-0.13 -0.02,-0.37 -0.09,-0.43 -0.18,-0.36 -0.3,-0.37" />
        <path
           id="path650"
           d="m 104.38,146.63 -0.16,0.34 -0.34,0.78" />
        <path
           id="path652"
           d="m 105.19,145.99 -0.63,0.36" />
        <path
           id="path654"
           d="m 104.88,151.4 1.19,-0.69 0.58,0.34" />
        <path
           id="path656"
           d="m 106.07,150.71 -0.58,-1.5" />
        <path
           id="path658"
           d="m 109.29,153.08 0.42,-0.7 0.14,-0.96 -0.14,-1.13 -0.42,-1.19 -0.65,-1.12 -0.81,-0.96 -0.91,-0.69 -0.91,-0.35 h -0.81 l 0.25,-0.14" />
        <path
           id="path660"
           d="m 105.2,145.98 -0.36,0.21" />
        <path
           id="path662"
           d="m 107.42,153.41 0.41,0.06" />
        <path
           id="path664"
           d="m 108.64,153.46 0.25,-0.14" />
        <path
           id="path666"
           d="m 108.42,147.27 0.25,0.15 0.48,0.48 0.4,0.59 0.28,0.66 0.11,0.61 -0.02,0.24" />
        <path
           id="path668"
           d="m 110,150.45 -0.04,-0.31 -0.41,-1.19 -0.65,-1.12 -0.82,-0.95 -0.23,-0.18" />
        <path
           id="path670"
           d="m 109.22,147.87 0.39,0.58 0.26,0.61 -0.01,-0.08 -0.21,-0.51 -0.3,-0.47 -0.13,-0.13 -0.01,-0.01 -0.23,-0.24 -0.03,-0.02 -0.22,-0.22 -0.45,-0.27" />
        <path
           id="path672"
           d="m 107.88,146.72 0.25,-0.05 0.52,0.13 0.53,0.32 0.49,0.48 0.39,0.59 0.29,0.66 0.11,0.61 -0.05,0.49 -0.21,0.37 -0.19,0.13" />
        <path
           id="path674"
           d="m 108.21,146.46 0.44,-0.08 0.51,0.12 0.53,0.32 0.49,0.49 0.4,0.58 0.28,0.66 0.11,0.62 -0.05,0.48 -0.2,0.37 -0.19,0.14" />
        <path
           id="path676"
           d="m 107.93,146.69 0.27,-0.05 0.51,0.12 0.53,0.32 0.22,0.22 0.03,0.02 0.24,0.25 h 0.01 l 0.39,0.58 0.26,0.61 -0.02,-0.08 -0.2,-0.51 -0.31,-0.46 -0.12,-0.14" />
        <path
           id="path678"
           d="m 110.84,149.89 0.15,-0.28 0.04,-0.48 -0.11,-0.61 -0.02,-0.06 -0.01,-0.07 -0.21,-0.52 -0.3,-0.46 -0.13,-0.13 -0.01,-0.01 -0.23,-0.25 -0.03,-0.01 -0.22,-0.22 -0.53,-0.33 -0.52,-0.12 -0.26,0.05" />
        <path
           id="path680"
           d="m 111.04,149.86 0.19,-0.14 0.21,-0.37 0.05,-0.48 -0.12,-0.61 -0.28,-0.67 -0.4,-0.58 -0.48,-0.48 -0.53,-0.33 -0.52,-0.12 -0.44,0.08" />
        <path
           id="path682"
           d="m 108.76,153.39 0.22,-0.13" />
        <path
           id="path684"
           d="m 108.95,147.6 0.21,0.21" />
        <path
           id="path686"
           d="m 109.67,147.51 -0.21,-0.21" />
        <path
           id="path688"
           d="m 109.24,145.87 0.44,-0.09 0.51,0.13 0.53,0.32 0.49,0.48 0.4,0.59 0.28,0.66 0.11,0.61 -0.05,0.48 -0.2,0.38 -0.19,0.13" />
        <path
           id="path690"
           d="m 112.07,149.27 0.19,-0.14 0.21,-0.37 0.04,-0.49 -0.11,-0.61 -0.28,-0.66 -0.4,-0.59 -0.48,-0.48 -0.53,-0.32 -0.52,-0.12 -0.44,0.08" />
        <path
           id="path692"
           d="m 108.96,146.09 0.27,-0.05 0.51,0.13 0.53,0.32 0.22,0.22 0.03,0.02 0.24,0.24 0.01,0.01 0.12,0.13 0.3,0.47 0.21,0.51 0.02,0.08 0.02,0.05 0.11,0.61 -0.05,0.48 -0.15,0.28" />
        <path
           id="path694"
           d="m 111.87,149.29 0.15,-0.27 0.04,-0.49 -0.11,-0.61 -0.02,-0.05 -0.01,-0.08 -0.21,-0.51 -0.3,-0.46 -0.13,-0.14 -0.01,-0.01 -0.23,-0.24 -0.03,-0.02 -0.22,-0.22 -0.53,-0.32 -0.52,-0.12 -0.26,0.05" />
        <path
           id="path696"
           d="m 109.96,150.14 0.05,-0.42 -0.12,-0.61 -0.02,-0.05" />
        <path
           id="path698"
           d="m 110.39,148.76 0.02,0.05 0.11,0.62 -0.05,0.48 -0.15,0.27" />
        <path
           id="path700"
           d="m 110.25,147.28 0.39,0.57 0.26,0.61" />
        <path
           id="path702"
           d="m 110.77,146.98 0.39,0.58 0.26,0.61" />
        <path
           id="path704"
           d="m 110.49,146.71 0.21,0.21" />
        <path
           id="path706"
           d="m 109.98,147.01 0.21,0.2" />
        <path
           id="path708"
           d="m 110.27,145.27 0.44,-0.08 0.51,0.12 0.53,0.33 0.49,0.48 0.4,0.58 0.28,0.66 0.11,0.62 -0.05,0.48 -0.2,0.37 -0.19,0.14" />
        <path
           id="path710"
           d="m 112.38,149 0.15,-0.28 0.05,-0.48 -0.11,-0.62 -0.02,-0.05 -0.02,-0.07 -0.21,-0.52 -0.3,-0.46 -0.12,-0.13 -0.01,-0.01 -0.24,-0.25 -0.02,-0.01 -0.23,-0.22 -0.53,-0.33 -0.51,-0.12 -0.27,0.05" />
        <path
           id="path712"
           d="m 113.1,148.67 0.19,-0.13 0.21,-0.38 0.04,-0.48 -0.11,-0.61 -0.28,-0.66 -0.4,-0.59 -0.47,-0.47 -0.01,-0.01 -0.53,-0.32 -0.52,-0.13 -0.44,0.08" />
        <path
           id="path714"
           d="m 112.9,148.7 0.15,-0.28 0.04,-0.48 -0.11,-0.61 -0.02,-0.06 -0.01,-0.07 -0.21,-0.52 -0.3,-0.46 -0.13,-0.13 -0.01,-0.01 -0.23,-0.25 -0.03,-0.01 -0.22,-0.22 -0.53,-0.32 -0.52,-0.13 -0.26,0.05" />
        <path
           id="path716"
           d="m 111.28,146.68 0.39,0.58 0.26,0.61" />
        <path
           id="path718"
           d="m 111.8,146.39 0.39,0.57 0.26,0.61" />
        <path
           id="path720"
           d="m 111.01,146.41 0.2,0.21" />
        <path
           id="path722"
           d="m 111.73,146.32 -0.21,-0.21" />
        <path
           id="path724"
           d="m 111.3,144.68 0.44,-0.09 0.51,0.13 0.54,0.32 0.48,0.48 0.4,0.59 0.28,0.66 0.11,0.61 -0.05,0.49 -0.2,0.37 -0.2,0.13" />
        <path
           id="path726"
           d="m 111.81,144.38 0.44,-0.08 0.52,0.12 0.53,0.32 0.01,0.02 0.47,0.46 0.4,0.59 0.28,0.66 0.11,0.62 -0.04,0.48 -0.21,0.37 -0.19,0.14" />
        <path
           id="path728"
           d="m 113.41,148.4 0.15,-0.27 0.05,-0.49 -0.11,-0.61 -0.02,-0.05 -0.02,-0.08 -0.21,-0.51 -0.3,-0.47 -0.13,-0.13 v -0.01 l -0.24,-0.24 -0.03,-0.02 -0.22,-0.22 -0.53,-0.32 -0.51,-0.13 -0.27,0.05" />
        <path
           id="path730"
           d="m 111.54,144.61 0.26,-0.05 0.52,0.12 0.53,0.32 0.22,0.22 0.02,0.02 0.24,0.25 h 0.01 l 0.13,0.14 0.3,0.46 0.21,0.51 0.01,0.08 -0.26,-0.61 -0.39,-0.58" />
        <path
           id="path732"
           d="m 112.31,146.09 0.39,0.58 0.26,0.6" />
        <path
           id="path734"
           d="m 112.82,145.79 0.4,0.58 0.26,0.61" />
        <path
           id="path736"
           d="m 112.04,145.82 0.21,0.2" />
        <path
           id="path738"
           d="m 112.76,145.73 -0.21,-0.21" />
        <path
           id="path740"
           d="m 112.05,144.31 0.27,-0.05 0.51,0.12 0.53,0.33 0.22,0.22 0.03,0.01 0.24,0.25 v 0.01 l 0.13,0.13 0.3,0.46 0.21,0.52 0.01,0.07 0.03,0.06 0.11,0.61 -0.05,0.48 -0.15,0.28" />
        <path
           id="path742"
           d="m 112.33,144.08 0.44,-0.08 0.51,0.12 0.53,0.33 0.49,0.48 0.4,0.58 0.28,0.67 0.11,0.61 -0.05,0.48 -0.2,0.37 -0.2,0.14" />
        <path
           id="path744"
           d="m 115.16,147.48 0.19,-0.13 0.21,-0.38 0.04,-0.48 -0.11,-0.61 -0.28,-0.66 -0.4,-0.59 -0.48,-0.48 -0.53,-0.32 -0.52,-0.13 -0.44,0.09" />
        <path
           id="path746"
           d="m 112.57,144.01 0.26,-0.05 0.51,0.13 0.54,0.32 0.22,0.22 0.02,0.02 0.24,0.24 0.01,0.01 0.13,0.13 0.3,0.47 0.21,0.51 0.01,0.07 0.02,0.06 0.11,0.61 -0.05,0.48 -0.15,0.28" />
        <path
           id="path748"
           d="m 113.68,148.34 v 0" />
        <path
           id="path750"
           d="m 113.99,146.68 0.02,0.05 0.11,0.62 -0.04,0.48 -0.16,0.27" />
        <path
           id="path752"
           d="m 113.28,145.43 -0.21,-0.21" />
        <path
           id="path754"
           d="m 113.85,145.2 0.4,0.57 0.25,0.61" />
        <path
           id="path756"
           d="m 113.58,144.93 0.21,0.2" />
        <path
           id="path758"
           d="m 113.36,143.49 0.44,-0.08 0.51,0.12 0.06,0.03 0.47,0.29 0.49,0.48 0.4,0.59 0.28,0.66 0.11,0.61 -0.05,0.49 -0.2,0.37 -0.2,0.14" />
        <path
           id="path760"
           d="m 116.57,145.89 -0.01,-0.14 -0.07,-0.43 -0.14,-0.45 -0.22,-0.44 -0.43,-0.56 -0.52,-0.44 -0.55,-0.27 -0.49,-0.05 -0.27,0.11" />
        <path
           id="path762"
           d="m 113.08,143.71 0.27,-0.04 0.51,0.12 0.53,0.32 0.22,0.22 0.03,0.02 0.16,0.17 0.08,0.07 v 0.01 l 0.13,0.14 0.3,0.46 0.21,0.51 0.01,0.08 0.03,0.05 0.11,0.61 -0.05,0.49 -0.15,0.27" />
        <path
           id="path764"
           d="m 116.03,146.82 0.1,-0.18 0.05,-0.48 -0.11,-0.62 -0.02,-0.05 -0.01,-0.08 -0.21,-0.51 -0.3,-0.46 -0.13,-0.13 -0.01,-0.01 -0.24,-0.25 -0.02,-0.02 -0.22,-0.21 -0.54,-0.33 -0.51,-0.12 -0.25,0.04" />
        <path
           id="path766"
           d="m 115.02,146.08 -0.26,-0.6 -0.39,-0.58" />
        <path
           id="path768"
           d="m 114.88,144.6 0.39,0.58 0.26,0.61" />
        <path
           id="path770"
           d="m 114.61,144.33 0.19,0.19" />
        <path
           id="path772"
           d="m 114.1,144.63 0.2,0.2" />
        <path
           id="path774"
           d="m 116.13,144.43 -0.23,-0.34 -0.48,-0.54 -0.4,-0.29" />
        <path
           id="path776"
           d="m 114.18,143.1 -0.04,0.01" />
        <path
           id="path778"
           d="m 115.4,144.31 0.39,0.57 0.26,0.61" />
        <path
           id="path780"
           d="m 116.57,145.55 -0.02,-0.28 -0.15,-0.53 -0.06,-0.14 -0.31,-0.47 -0.34,-0.36 -0.06,-0.04 0.09,0.08 0.31,0.38 0.22,0.35 0.17,0.37 0.11,0.35 0.04,0.31" />
        <path
           id="path782"
           d="m 115.13,144.03 0.21,0.21" />
        <path
           id="path784"
           d="m 115.63,143.73 -0.25,-0.23 -0.21,-0.14 0.27,0.14 0.27,0.23 0.29,0.32 0.25,0.38 0.09,0.17" />
        <path
           id="path786"
           d="m 115.17,143.36 -0.01,-0.01" />
        <path
           id="path788"
           d="m 115.8,143.79 v 0" />
      </g>
      <g
         id="g808"
         style="stroke:#000020;stroke-width:0.176">
        <path
           id="path792"
           d="m 104.56,146.35 -0.01,0.01 -0.42,0.7 -0.25,0.69 -0.11,0.83 -0.01,0.6 0.12,0.83 0.22,0.57 0.13,0.3 0.19,0.44 0.41,0.49 0.46,0.54 0.51,0.37 0.52,0.3 0.51,0.23 0.59,0.16" />
        <path
           id="path794"
           d="m 104.55,146.36 0.03,-0.02" />
        <path
           id="path796"
           d="m 105.19,145.99 -0.34,0.2" />
        <path
           id="path798"
           d="m 105.45,145.84 0.82,-0.01 0.9,0.36 0.68,0.51" />
        <path
           id="path800"
           d="m 107.41,153.41 0.63,0.08 0.26,-0.03 h 0.34 l 0.26,-0.15 -0.01,0.01" />
        <path
           id="path802"
           d="m 115.8,143.79 -0.39,-0.31 -0.25,-0.13 -0.14,-0.09 -0.52,-0.18 -0.46,0.03 -0.17,0.11 -0.15,0.06 -0.11,0.13 -0.19,0.04 -0.06,0.04 -0.23,0.15 -0.05,0.07 -0.18,0.04 -0.06,0.04 -0.23,0.15 -0.04,0.07 -0.18,0.04 -0.06,0.03 -0.23,0.16 -0.05,0.07 -0.17,0.03 -0.07,0.04 -0.23,0.15 -0.04,0.08 -0.18,0.03 -0.06,0.04 -0.23,0.15 -0.05,0.07 -0.17,0.04 -0.07,0.03 -0.23,0.16 -0.04,0.07 -0.18,0.03 -0.06,0.04 -0.23,0.16 -0.05,0.07 -0.17,0.03 -0.07,0.04 -0.23,0.15 -0.04,0.08 -0.18,0.03 -0.06,0.04 -0.23,0.15 -0.05,0.07 -0.17,0.04 -0.07,0.03 -0.22,0.16 -0.05,0.07 -0.18,0.03 -0.06,0.04 -0.23,0.15 -0.05,0.08 -0.08,0.01" />
        <path
           id="path804"
           d="m 108.98,153.26 h 0.01 l -0.09,0.05 0.65,-0.37 -0.56,0.32 0.56,-0.32 0.41,-0.71 0.15,-0.96 -0.11,-0.82" />
        <path
           id="path806"
           d="m 110,150.45 h 0.01 l 0.07,-0.03 0.19,-0.14 0.05,-0.1 0.21,-0.02 0.06,-0.04 0.19,-0.14 0.06,-0.09 0.2,-0.03 0.07,-0.04 0.19,-0.13 0.05,-0.1 0.21,-0.03 0.06,-0.03 0.19,-0.14 0.06,-0.1 0.2,-0.02 0.06,-0.04 0.2,-0.14 0.05,-0.09 0.21,-0.03 0.06,-0.04 0.19,-0.13 0.06,-0.1 0.2,-0.03 0.06,-0.04 0.2,-0.13 0.05,-0.1 0.2,-0.03 0.07,-0.03 0.19,-0.14 0.05,-0.1 0.21,-0.02 0.06,-0.04 0.2,-0.14 0.05,-0.09 0.2,-0.03 0.07,-0.04 0.19,-0.13 0.05,-0.1 0.21,-0.03 0.06,-0.03 0.2,-0.14 0.05,-0.1 0.2,-0.02 0.07,-0.04 0.19,-0.14 0.1,-0.19 h 0.03 l 0.2,-0.11 0.17,-0.2 0.1,-0.28 0.04,-0.34 v -0.4 l -0.02,-0.26 -0.14,-0.52 -0.26,-0.49 -0.35,-0.43" />
      </g>
    </g>
    <g
       id="Actor_.5">
      <g
         id="g921"
         style="stroke:#000020;stroke-width:0.141">
        <path
           id="path811"
           d="m 83.3,121.73 -0.25,-0.63 -0.11,-0.6 0.04,-0.54 0.18,-0.41 0.32,-0.24 0.41,-0.05 0.47,0.14 0.48,0.32 0.45,0.47 0.21,0.33 0.15,0.25 0.26,0.62 0.11,0.61 -0.04,0.53 -0.19,0.41 -0.31,0.24 -0.41,0.06 -0.47,-0.15 -0.48,-0.32 -0.45,-0.47 -0.47,-0.73" />
        <path
           id="path813"
           d="m 83.39,121.86 v -0.01" />
        <path
           id="path815"
           d="m 83.56,121.58 0.19,0.34 0.24,0.3 0.33,0.3 0.35,0.19 0.26,0.07 0.24,-0.02 0.25,-0.13 0.17,-0.25 0.07,-0.27 v -0.36 l -0.08,-0.39 -0.16,-0.4 -0.22,-0.38 -0.23,-0.3 -0.33,-0.3 -0.35,-0.2 -0.26,-0.06 -0.25,0.01 -0.24,0.14 -0.17,0.25 -0.07,0.27 v 0.31 l 0.08,0.44 0.18,0.44" />
        <path
           id="path817"
           d="m 84.3,119.81 -1,0.58 0.26,0.37 0.14,0.36 0.06,0.42 -0.01,0.38 0.48,0.17 0.32,0.2 0.24,0.25 0.14,0.24 0.34,-0.27 0.21,-0.18 0.13,-0.14 0.05,-0.08 v -0.37" />
        <path
           id="path819"
           d="m 83.3,120.39 0.25,-0.2 0.24,-0.2 0.15,-0.15 0.09,-0.12 0.34,0.12 0.27,0.14" />
        <path
           id="path821"
           d="m 83.75,121.92 1.19,-0.69 0.72,0.52" />
        <path
           id="path823"
           d="m 84.94,121.23 -0.38,-1.29" />
        <path
           id="path825"
           d="m 87.83,124.09 0.59,-0.46 0.36,-0.78 0.04,-0.61 0.03,-0.4 -0.22,-1.15 -0.47,-1.18 -0.7,-1.1 -0.85,-0.89 -0.91,-0.61 -0.18,-0.06 -0.72,-0.21 -0.78,0.1" />
        <path
           id="path827"
           d="m 87.76,118.34 0.12,0.11 0.43,0.54 0.33,0.63 0.18,0.63 v 0.13" />
        <path
           id="path829"
           d="m 86.89,117.4 0.82,0.87 0.7,1.09 0.48,1.18 0.11,0.6" />
        <path
           id="path831"
           d="m 87.51,118.06 0.13,0.07 0.31,0.28 0.08,0.1 0.12,0.12 0.32,0.44 0.24,0.49 0.1,0.39 -0.11,-0.37 -0.32,-0.62 -0.35,-0.45" />
        <path
           id="path833"
           d="m 86.94,117.45 0.13,-0.03 0.48,0.13 0.54,0.32 0.31,0.28 0.43,0.55 0.32,0.62 0.18,0.63 0.02,0.56 -0.14,0.43 -0.21,0.19" />
        <path
           id="path835"
           d="m 87.12,117.2 0.46,-0.07 0.49,0.12 0.53,0.32 0.31,0.28 0.43,0.55 0.33,0.62 0.18,0.63 0.02,0.56 -0.15,0.43 -0.3,0.27" />
        <path
           id="path837"
           d="m 89.24,120.93 0.03,-0.03 0.15,-0.43 -0.02,-0.56 -0.08,-0.26 -0.09,-0.39 -0.24,-0.49 -0.32,-0.44 -0.13,-0.11 -0.08,-0.11 -0.31,-0.28 -0.53,-0.32 -0.49,-0.12 -0.21,0.03" />
        <path
           id="path839"
           d="m 89.76,120.63 0.03,-0.02 0.14,-0.44 -0.02,-0.55 -0.07,-0.26 -0.1,-0.39 -0.24,-0.5 -0.32,-0.44 -0.13,-0.11 -0.07,-0.1 -0.32,-0.28 -0.53,-0.33 -0.48,-0.12 -0.29,0.05" />
        <path
           id="path841"
           d="m 87.64,116.91 0.46,-0.08 0.48,0.12 0.54,0.33 0.31,0.28 0.43,0.54 0.32,0.63 0.18,0.63 0.02,0.55 -0.14,0.43 v 0.01 l -0.3,0.26" />
        <path
           id="path843"
           d="m 88.81,119.95 0.07,0.26 0.02,0.36" />
        <path
           id="path845"
           d="m 88.54,118.22 0.35,0.44 0.33,0.62 0.1,0.37" />
        <path
           id="path847"
           d="m 90.27,120.34 0.03,-0.03 0.15,-0.43 -0.02,-0.56 -0.08,-0.26 -0.09,-0.39 -0.24,-0.49 -0.32,-0.44 -0.13,-0.12 -0.08,-0.1 -0.31,-0.28 -0.54,-0.33 -0.48,-0.12 -0.28,0.05" />
        <path
           id="path849"
           d="m 88.15,116.61 0.46,-0.08 0.49,0.12 0.53,0.33 0.31,0.28 0.43,0.55 0.33,0.62 0.18,0.63 0.02,0.56 -0.15,0.43 -0.3,0.26" />
        <path
           id="path851"
           d="m 88.67,116.31 0.46,-0.07 0.48,0.12 0.53,0.32 0.32,0.28 0.43,0.55 0.32,0.62 0.18,0.63 0.02,0.56 -0.14,0.43 -0.3,0.27" />
        <path
           id="path853"
           d="m 88.39,116.54 0.29,-0.04 0.48,0.12 0.53,0.32 0.31,0.28 0.08,0.1 0.13,0.12 0.32,0.44 0.24,0.49 0.1,0.4 -0.11,-0.38 -0.33,-0.62 -0.35,-0.45" />
        <path
           id="path855"
           d="m 89.05,117.92 0.36,0.44 0.32,0.63 0.11,0.37" />
        <path
           id="path857"
           d="m 89.57,117.62 0.35,0.45 0.33,0.62 0.1,0.37" />
        <path
           id="path859"
           d="m 89.18,116.02 0.46,-0.08 0.48,0.12 0.54,0.33 0.31,0.28 0.43,0.54 0.33,0.62 0.18,0.63 0.02,0.56 -0.15,0.43 -0.3,0.27" />
        <path
           id="path861"
           d="m 88.91,116.25 0.28,-0.05 0.48,0.12 0.54,0.32 0.31,0.29 0.08,0.1 0.13,0.11 0.32,0.44 0.23,0.5 0.1,0.39 -0.1,-0.38 -0.33,-0.62 -0.35,-0.44" />
        <path
           id="path863"
           d="m 92,119.42 0.3,-0.26 0.14,-0.43 -0.02,-0.55 v -0.01 l -0.18,-0.63 -0.33,-0.63 -0.43,-0.54 -0.31,-0.28 -0.53,-0.33 -0.48,-0.12 -0.46,0.08" />
        <path
           id="path865"
           d="m 91.82,119.44 0.03,-0.02 0.14,-0.43 -0.02,-0.56 -0.08,-0.28 -0.09,-0.37 -0.24,-0.5 -0.32,-0.43 -0.13,-0.12 -0.08,-0.1 -0.31,-0.28 -0.53,-0.33 -0.48,-0.12 -0.29,0.05" />
        <path
           id="path867"
           d="m 89.94,115.65 0.28,-0.05 0.48,0.13 0.54,0.32 0.31,0.28 0.08,0.1 0.13,0.12 0.32,0.44 0.23,0.49 0.1,0.4 0.08,0.25 0.01,0.56 -0.14,0.43 -0.03,0.03" />
        <path
           id="path869"
           d="m 90.79,120.04 0.03,-0.03 0.14,-0.43 -0.02,-0.56 -0.07,-0.25" />
        <path
           id="path871"
           d="m 90.21,115.42 0.46,-0.08 0.48,0.13 0.54,0.32 0.31,0.28 0.43,0.55 0.33,0.62 0.18,0.63 0.01,0.56 -0.14,0.43 -0.3,0.27" />
        <path
           id="path873"
           d="m 90.73,115.12 0.46,-0.07 0.48,0.12 0.53,0.32 0.31,0.28 0.43,0.55 0.33,0.62 0.18,0.63 v 0.02 l 0.02,0.54 -0.14,0.43 -0.3,0.27" />
        <path
           id="path875"
           d="m 92.14,116.14 0.35,0.44 0.33,0.62 0.1,0.36 -0.09,-0.38 -0.24,-0.49 -0.32,-0.44 -0.13,-0.11 -0.08,-0.11 -0.31,-0.28 -0.53,-0.32 -0.48,-0.12 -0.29,0.04" />
        <path
           id="path877"
           d="m 90.97,115.06 0.28,-0.05 0.48,0.12 0.54,0.33 0.31,0.28 0.08,0.1 0.13,0.11 0.32,0.44 0.23,0.5 0.1,0.39 -0.11,-0.37 -0.32,-0.63 -0.35,-0.44" />
        <path
           id="path879"
           d="m 91.3,119.74 0.03,-0.03 0.15,-0.43 -0.02,-0.56 -0.08,-0.25" />
        <path
           id="path881"
           d="m 91.11,116.73 0.35,0.44 0.33,0.63 0.1,0.35" />
        <path
           id="path883"
           d="m 91.63,116.43 0.35,0.45 0.33,0.62 0.1,0.38" />
        <path
           id="path885"
           d="m 93.54,118.53 0.3,-0.26 0.14,-0.44 -0.01,-0.55 -0.19,-0.63 -0.32,-0.63 -0.43,-0.54 -0.31,-0.28 -0.54,-0.33 -0.48,-0.12 -0.46,0.08" />
        <path
           id="path887"
           d="m 91.76,114.53 0.46,-0.08 0.48,0.12 0.53,0.33 0.31,0.28 0.43,0.55 0.33,0.62 0.18,0.63 0.02,0.56 -0.14,0.43 -0.3,0.26" />
        <path
           id="path889"
           d="m 93.88,118.26 0.03,-0.03 0.14,-0.43 -0.02,-0.56 -0.08,-0.29 -0.09,-0.36 -0.24,-0.5 -0.32,-0.43 -0.13,-0.12 -0.08,-0.1 -0.31,-0.28 -0.53,-0.33 -0.49,-0.12 -0.28,0.05" />
        <path
           id="path891"
           d="m 94.39,117.96 0.03,-0.03 0.14,-0.43 -0.01,-0.56 -0.08,-0.26 -0.1,-0.39 -0.23,-0.49 -0.33,-0.44 -0.12,-0.12 -0.08,-0.1 -0.31,-0.28 -0.54,-0.32 -0.48,-0.12 -0.28,0.04" />
        <path
           id="path893"
           d="m 92.85,118.85 0.03,-0.03 0.14,-0.43 -0.02,-0.56 -0.08,-0.27" />
        <path
           id="path895"
           d="m 92.27,114.23 0.46,-0.07 0.48,0.12 0.54,0.32 0.31,0.28 0.43,0.55 0.32,0.62 0.19,0.63 0.01,0.56 -0.14,0.43 -0.3,0.27" />
        <path
           id="path897"
           d="m 92.79,113.93 0.45,-0.07 0.11,0.01 0.51,0.17 0.52,0.37 0.48,0.52 0.37,0.6 0.24,0.65 0.07,0.6 -0.09,0.47" />
        <path
           id="path899"
           d="m 94.93,117.64 0.01,-0.01 0.14,-0.43 -0.02,-0.56 -0.07,-0.25 -0.1,-0.39 -0.24,-0.5 -0.32,-0.44 -0.13,-0.11 -0.08,-0.1 -0.31,-0.29 -0.53,-0.32 -0.49,-0.12 -0.28,0.05" />
        <path
           id="path901"
           d="m 93.44,117.28 0.08,0.26 0.01,0.55 -0.14,0.44 -0.03,0.02" />
        <path
           id="path903"
           d="m 93.95,116.95 -0.1,-0.34 -0.33,-0.62 -0.35,-0.45" />
        <path
           id="path905"
           d="m 93.69,115.24 0.35,0.45 0.32,0.62 0.11,0.37" />
        <path
           id="path907"
           d="m 94.36,114.15 0.33,0.27 0.27,0.29 0.25,0.38 0.18,0.35 0.13,0.4 0.05,0.33 -0.01,0.21 -0.11,-0.5 -0.02,-0.05 -0.04,-0.17 -0.21,-0.44 -0.32,-0.44 -0.09,-0.08 -0.01,-0.02 -0.5,-0.47 -0.54,-0.3 -0.11,-0.02" />
        <path
           id="path909"
           d="m 94.99,116.39 -0.11,-0.38 -0.33,-0.62 -0.35,-0.44" />
        <path
           id="path911"
           d="m 95.03,116.55 0.51,0.23" />
        <path
           id="path913"
           d="m 94.77,114.7 0.39,0.55 0.27,0.58" />
        <path
           id="path915"
           d="m 95.54,116.99 0.02,-0.61 -0.01,-0.13 -0.1,-0.37" />
        <path
           id="path917"
           d="m 95.54,116.75 0.02,-0.1" />
        <path
           id="path919"
           d="m 95.57,116.17 v -0.05" />
      </g>
      <g
         id="g931"
         style="stroke:#000020;stroke-width:0.176">
        <path
           id="path923"
           d="m 89,121.14 0.1,0.55 -0.07,1.02 -0.35,0.77 -0.6,0.46 -0.25,0.15 -0.79,0.1 -0.72,-0.13 -0.65,-0.18 -0.7,-0.36 -0.51,-0.37 -0.57,-0.51 -0.46,-0.68 -0.23,-0.39 -0.28,-0.7 -0.15,-0.77 -0.02,-0.81 0.12,-0.81 0.26,-0.75 0.13,-0.17 0.16,-0.36 0.6,-0.46 0.25,-0.15 0.79,-0.1 0.89,0.27 0.92,0.61 0.02,0.03" />
        <path
           id="path925"
           d="m 83.2,121.57 h 0.01" />
        <path
           id="path927"
           d="m 86.89,117.4 0.23,-0.2 0.07,-0.03 0.17,-0.03 0.28,-0.23 0.06,-0.04 0.18,-0.03 0.27,-0.23 0.07,-0.04 0.17,-0.03 0.28,-0.23 0.06,-0.03 0.18,-0.03 0.27,-0.23 0.07,-0.04 0.17,-0.03 0.28,-0.23 0.06,-0.04 0.18,-0.03 0.27,-0.23 0.07,-0.04 0.17,-0.03 0.28,-0.23 0.06,-0.03 0.18,-0.03 0.27,-0.23 0.07,-0.04 0.17,-0.03 0.28,-0.23 0.06,-0.04 0.18,-0.03 0.27,-0.23 0.07,-0.04 0.17,-0.02 0.28,-0.24 0.06,-0.03 0.46,-0.08 0.3,0.07 h 0.04 0.07 l 0.33,0.09 0.31,0.17 0.22,0.13 0.38,0.36 0.31,0.47 0.21,0.51 0.09,0.5" />
        <path
           id="path929"
           d="m 95.57,116.13 -0.01,0.25 0.01,0.22 -0.01,0.05 -0.02,0.34 -0.09,0.26 -0.18,0.24 -0.23,0.13 -0.11,0.02 -0.29,0.26 -0.07,0.04 -0.18,0.02 -0.27,0.24 -0.06,0.03 -0.18,0.03 -0.27,0.23 -0.07,0.04 -0.18,0.02 -0.27,0.24 -0.06,0.04 -0.18,0.02 -0.27,0.24 -0.07,0.04 -0.18,0.02 -0.27,0.24 -0.06,0.03 -0.18,0.02 -0.27,0.24 -0.07,0.04 -0.18,0.02 -0.27,0.24 -0.06,0.04 -0.18,0.02 -0.27,0.24 -0.07,0.03 -0.18,0.03 -0.27,0.23 -0.06,0.04 -0.18,0.02 -0.27,0.24 -0.07,0.04 -0.18,0.02 -0.24,0.21" />
      </g>
    </g>
    <g
       id="Actor_.6">
      <g
         id="g936"
         style="stroke:#000020;stroke-width:0.141">
        <path
           id="path934"
           d="m 214.98,75.6 -0.96,0.55" />
      </g>
      <g
         id="g940"
         style="stroke:#000020;stroke-width:0.176">
        <path
           id="path938"
           d="m 214.61,75.46 0.37,0.14 1.71,12.59 -2.71,1.56" />
      </g>
    </g>
    <g
       id="Actor_.7">
      <g
         id="g953"
         style="stroke:#000020;stroke-width:0.141">
        <path
           id="path943"
           d="m 215.72,74.16 1.12,0.43 -1.37,1.23 -0.43,0.24" />
        <path
           id="path945"
           d="m 215.47,75.82 -0.49,-0.19" />
        <path
           id="path947"
           d="m 216.34,73.62 -0.31,0.18" />
        <path
           id="path949"
           d="m 216.42,74.14 -0.51,-0.2" />
        <path
           id="path951"
           d="m 216.84,74.59 0.31,-0.18" />
      </g>
      <g
         id="g957"
         style="stroke:#000020;stroke-width:0.176">
        <path
           id="path955"
           d="m 216.53,87 0.43,-0.25 1.58,0.3 0.3,-0.17 -1.69,-12.47 -0.73,-0.27 -0.08,-0.52 -0.12,-0.05" />
      </g>
    </g>
    <g
       id="g968">
      <g
         id="g962">
        <path
           id="path960"
           d="m 95.23,115.04 21.95,-12.67"
           style="stroke:#f05a28;stroke-width:1;stroke-dasharray:3.6, 2.4, 1.2, 2.4" />
      </g>
      <g
         id="g964" />
      <g
         id="g966" />
    </g>
    <g
       id="g978">
      <g
         id="g972">
        <path
           id="path970"
           d="m 138.18,131.67 -21.96,12.68"
           style="stroke:#f05a28;stroke-width:1;stroke-dasharray:3.6, 2.4, 1.2, 2.4" />
      </g>
      <g
         id="g974" />
      <g
         id="g976" />
    </g>
  </g>
  <g
     id="g980" />
  <g
     id="paperID"
     visibility="hidden"
     opacity="0"
     transform="matrix(1e-4,0,0,1e-4,0,0)">
    <path
       style="fill:#e6e6e6;fill-rule:evenodd;stroke:#000000;stroke-width:0.5"
       d="M -2000,-2000 H 2297 V 2210 H -2000 Z M 0,0 H 297 V 210 H 0 Z"
       id="path982" />
    <path
       style="fill:#000000;fill-opacity:0.118"
       d="M 3,210 H 297 V 3 h 3 V 213 H 3 Z"
       id="path984" />
  </g>
</svg>
